<svg xmlns="http://www.w3.org/2000/svg" xmlns:xlink="http://www.w3.org/1999/xlink" xmlns:lucid="lucid" width="913.85" height="1571"><g transform="translate(0 0)" lucid:page-tab-id="0_0"><path d="M20 78.58c0-4.42 3.58-8 8-8h836.75c4.42 0 8 3.58 8 8v25.15c0 4.42-3.58 8-8 8H28c-4.42 0-8-3.58-8-8z" stroke="#000" stroke-opacity="0" stroke-width="2" fill="#fff" fill-opacity="0"/><use xlink:href="#a" transform="matrix(1,0,0,1,24,74.57761197839864) translate(272.4464197530864 23.657777777777778)"/><use xlink:href="#b" transform="matrix(1,0,0,1,24,74.57761197839864) translate(455.6377777777777 23.657777777777778)"/><path d="M276.3 110.4h347.88M276.32 110.4h-1.02M624.16 110.4h1.02" stroke="#a9afb8" stroke-width="2" fill="none"/><path d="M20 119.73c0-4.42 3.58-8 8-8h837.7c4.43 0 8 3.58 8 8v2.85c0 4.42-3.57 8-8 8H28c-4.42 0-8-3.58-8-8z" stroke="#000" stroke-opacity="0" stroke-width="2" fill="#fff" fill-opacity="0"/><use xlink:href="#c" transform="matrix(1,0,0,1,24.000000000000398,115.73283593529744) translate(300.13680041152264 14.917037037037037)"/><use xlink:href="#d" transform="matrix(1,0,0,1,24.000000000000398,115.73283593529744) translate(346.70552469135805 14.917037037037037)"/><use xlink:href="#e" transform="matrix(1,0,0,1,24.000000000000398,115.73283593529744) translate(433.8944135802469 14.917037037037037)"/><use xlink:href="#f" transform="matrix(1,0,0,1,24.000000000000398,115.73283593529744) translate(446.3438991769548 14.917037037037037)"/><use xlink:href="#g" transform="matrix(1,0,0,1,24.000000000000398,115.73283593529744) translate(492.99760288065846 14.917037037037037)"/><use xlink:href="#h" transform="matrix(1,0,0,1,24.000000000000398,115.73283593529744) translate(518.4914300411523 14.917037037037037)"/><path d="M506.85 297.06c0 6.63-26.86 12-60 12-33.13 0-60-5.37-60-12v-96c0-6.63 26.87-12 60-12 33.14 0 60 5.37 60 12z" stroke="#fff" stroke-width="3" fill="#333"/><path d="M506.85 201.06c0 6.63-26.86 12-60 12-33.13 0-60-5.37-60-12" stroke="#fff" stroke-width="3" fill="none"/><use xlink:href="#i" transform="matrix(1,0,0,1,391.853447214657,218.05873426089667) translate(10.575000000000003 25)"/><use xlink:href="#j" transform="matrix(1,0,0,1,391.853447214657,218.05873426089667) translate(59.425000000000004 25)"/><use xlink:href="#k" transform="matrix(1,0,0,1,391.853447214657,218.05873426089667) translate(19.525 46.6)"/><use xlink:href="#l" transform="matrix(1,0,0,1,391.853447214657,218.05873426089667) translate(24.75 68.2)"/><path d="M446.85 311.06v23.23c0 .12-.1.23-.24.23-.12 0-.23.1-.23.24v7.35" stroke="#333" fill="none"/><path d="M446.85 310.56l.5-.02v.53h-1v-.53z" fill="#333"/><path d="M446.37 356.88l-4.63-14.26H451z" stroke="#333" fill="#333"/><path d="M366.37 368c0-4.42 3.6-8 8-8h144c4.42 0 8 3.58 8 8v64c0 4.42-3.58 8-8 8h-144c-4.4 0-8-3.58-8-8z" stroke="#333" stroke-width="3" fill="#333"/><use xlink:href="#m" transform="matrix(1,0,0,1,378.3747542340575,372) translate(36.099999999999994 14.4)"/><use xlink:href="#n" transform="matrix(1,0,0,1,378.3747542340575,372) translate(80.9 14.4)"/><use xlink:href="#o" transform="matrix(1,0,0,1,378.3747542340575,372) translate(9.074999999999996 36)"/><use xlink:href="#p" transform="matrix(1,0,0,1,378.3747542340575,372) translate(87.92500000000001 36)"/><use xlink:href="#q" transform="matrix(1,0,0,1,378.3747542340575,372) translate(13.524999999999999 57.6)"/><path d="M545.88 400.5h-17.5v-1h17.5zm43.1 0h-16.15v-1h16.14z" fill="#333"/><path d="M528.4 400.5h-.53v-1h.52zM603.73 400l-14.26 4.64v-9.28z" fill="#333"/><path d="M605.35 400l-16.38 5.32v-10.64zm-15.38 3.95l12.15-3.95-12.15-3.95z" fill="#333"/><use xlink:href="#r" transform="matrix(1,0,0,1,545.8784472146568,389.2) translate(0.005000000000000782 14.4)"/><path d="M734.85 360c17.68 0 32 17.9 32 40s-14.32 40-32 40h-96c-17.67 0-32-17.9-32-40s14.33-40 32-40z" fill="#fff"/><path d="M744.54 361.87l3.12 1.46 3.17 2 1 .84m4.14 3.87l1.02 1.07 2.82 3.88 1.1 1.95m2.44 5.1l1.06 2.64 1.44 5.47m.78 5.62l.1.66.1 3.58-.25 4.24m-.82 5.6l-.44 2.34-1.76 5.46-.16.35m-2.48 5.1l-2.32 3.68-2.63 3.2m-4.15 3.86l-2.4 1.76-3.17 1.78-1.76.7m-5.44 1.53l-2.4.33-1.83.07h-4.8m-6.4 0h-9.6m-6.4 0h-9.6m-6.4 0h-9.6m-6.4 0h-9.6m-6.4 0h-9.6m-6.4 0h-4.8l-3.24-.2-.97-.2m-5.47-1.47l-3.1-1.46-3.18-2-1.02-.84m-4.12-3.87l-1.02-1.07-2.84-3.88-1.08-1.95m-2.45-5.1l-1.06-2.64-1.45-5.47m-.78-5.62l-.1-.66-.12-3.58.27-4.24m.8-5.6l.44-2.34 1.76-5.46.17-.35m2.46-5.1l2.32-3.68 2.63-3.2m4.16-3.86l2.4-1.76 3.17-1.78 1.75-.7m5.44-1.53l2.4-.33 1.83-.07h4.8m6.4 0h9.6m6.4 0h9.6m6.4 0h9.6m6.4 0h9.6m6.4 0h9.6m6.4 0h4.8l3.24.2.98.2" stroke="#b2b2b2" stroke-width="3" fill="none"/><use xlink:href="#s" transform="matrix(1,0,0,1,611.8534472146569,365) translate(20.525 38.6)"/><use xlink:href="#t" transform="matrix(1,0,0,1,611.8534472146569,365) translate(55.525 38.6)"/><path d="M446.87 502.12h-1V490.8h1zm0-32.92h-1V442h1zM446.87 442h-1v-.5h1zM446.37 516.88l-4.63-14.26H451z" fill="#333"/><path d="M446.37 518.5l-5.32-16.38h10.65zm-3.94-15.38l3.94 12.14 3.95-12.14z" fill="#333"/><use xlink:href="#u" transform="matrix(1,0,0,1,428.3747542340575,469.2) translate(0.004999999999999005 14.4)"/><path d="M366.37 528c0-4.42 3.6-8 8-8h144c4.42 0 8 3.58 8 8v68.56c0 4.42-3.58 8-8 8h-144c-4.4 0-8-3.58-8-8z" stroke="#333" stroke-width="3" fill="#333"/><use xlink:href="#m" transform="matrix(1,0,0,1,378.3747542340575,532) translate(7.099999999999994 14.4)"/><use xlink:href="#v" transform="matrix(1,0,0,1,378.3747542340575,532) translate(51.9 14.4)"/><use xlink:href="#w" transform="matrix(1,0,0,1,378.3747542340575,532) translate(75.9 14.4)"/><use xlink:href="#x" transform="matrix(1,0,0,1,378.3747542340575,532) translate(10.075000000000003 36)"/><use xlink:href="#y" transform="matrix(1,0,0,1,378.3747542340575,532) translate(77.925 36)"/><use xlink:href="#z" transform="matrix(1,0,0,1,378.3747542340575,532) translate(16.575000000000003 57.6)"/><use xlink:href="#A" transform="matrix(1,0,0,1,378.3747542340575,532) translate(78.475 57.6)"/><path d="M546.18 562.78h-17.8v-1h17.8zm42.8 0h-15.85v-1h15.84z" fill="#333"/><path d="M528.4 562.78h-.53v-1h.52zM603.73 562.28l-14.26 4.64v-9.27z" fill="#333"/><path d="M605.35 562.28l-16.38 5.33v-10.64zm-15.38 3.95l12.15-3.95-12.15-3.95z" fill="#333"/><use xlink:href="#r" transform="matrix(1,0,0,1,546.1796741880661,551.4819569531684) translate(0.005000000000000782 14.4)"/><path d="M734.85 522.28c17.68 0 32 17.9 32 40s-14.32 40-32 40h-96c-17.67 0-32-17.9-32-40s14.33-40 32-40z" fill="#fff"/><path d="M744.54 524.15l3.12 1.46 3.17 2 1 .85m4.14 3.87l1.02 1.07 2.82 3.86 1.1 1.95m2.44 5.1l1.06 2.65 1.44 5.47m.78 5.62l.1.67.1 3.58-.25 4.25m-.82 5.6l-.44 2.33-1.76 5.46-.16.36m-2.48 5.1l-2.32 3.68-2.63 3.2m-4.15 3.86l-2.4 1.76-3.17 1.78-1.76.7m-5.44 1.54l-2.4.32-1.83.06h-4.8m-6.4 0h-9.6m-6.4 0h-9.6m-6.4 0h-9.6m-6.4 0h-9.6m-6.4 0h-9.6m-6.4 0h-4.8l-3.24-.2-.97-.2m-5.47-1.47l-3.1-1.45-3.18-2-1.02-.84m-4.12-3.86l-1.02-1.07-2.84-3.87-1.08-1.95m-2.45-5.1l-1.06-2.64-1.45-5.46m-.78-5.6l-.1-.68-.12-3.58.27-4.24m.8-5.6l.44-2.33 1.76-5.46.17-.35m2.46-5.1l2.32-3.7 2.63-3.2m4.16-3.86l2.4-1.76 3.17-1.77 1.75-.7m5.44-1.53l2.4-.32 1.83-.07h4.8m6.4 0h9.6m6.4 0h9.6m6.4 0h9.6m6.4 0h9.6m6.4 0h9.6m6.4 0h4.8l3.24.2.98.2" stroke="#b2b2b2" stroke-width="3" fill="none"/><use xlink:href="#B" transform="matrix(1,0,0,1,611.8534472146569,527.2819569055541) translate(15.524999999999999 38.6)"/><use xlink:href="#t" transform="matrix(1,0,0,1,611.8534472146569,527.2819569055541) translate(60.525 38.6)"/><path d="M447.35 655.62h-1v-9.26h1zm-.48-30.86h-1v-18.2h1z" fill="#333"/><path d="M446.87 606.58h-1v-.52h1zM446.85 670.38l-4.63-14.26h9.27z" fill="#333"/><path d="M446.85 672l-5.32-16.38h10.65zm-3.94-15.38l3.95 12.14 3.95-12.14z" fill="#333"/><use xlink:href="#u" transform="matrix(1,0,0,1,428.3747542340575,624.7559417912115) translate(0.004999999999999005 14.4)"/><path d="M366.85 687.92c0-4.42 3.56-8.44 7.94-9L518.9 661c4.4-.56 7.95 2.58 7.95 7v104c0 4.42-3.58 8-8 8h-144c-4.4 0-8-3.58-8-8z" stroke="#333" stroke-width="3" fill="#fff"/><use xlink:href="#C" transform="matrix(1,0,0,1,371.853447214657,685) translate(16.549999999999997 27)"/><use xlink:href="#D" transform="matrix(1,0,0,1,371.853447214657,685) translate(84.55 27)"/><use xlink:href="#E" transform="matrix(1,0,0,1,371.853447214657,685) translate(117.5 27)"/><use xlink:href="#F" transform="matrix(1,0,0,1,371.853447214657,685) translate(15.074999999999996 48.6)"/><use xlink:href="#G" transform="matrix(1,0,0,1,371.853447214657,685) translate(60.975 48.6)"/><use xlink:href="#H" transform="matrix(1,0,0,1,371.853447214657,685) translate(104.92500000000001 48.6)"/><use xlink:href="#I" transform="matrix(1,0,0,1,371.853447214657,685) translate(42.525 70.2)"/><path d="M547.13 720.74h-18.28v-1h18.28zm41.84-.24h-14.9v-1h14.9z" fill="#333"/><path d="M528.87 720.74h-.52v-1h.52zM603.73 720l-14.26 4.64v-9.28z" fill="#333"/><path d="M605.35 720l-16.38 5.32v-10.64zm-15.38 3.95l12.15-3.95-12.15-3.95z" fill="#333"/><use xlink:href="#r" transform="matrix(1,0,0,1,547.1321674884035,709.4398699571285) translate(0.005000000000000782 14.4)"/><path d="M734.85 680c17.68 0 32 17.9 32 40s-14.32 40-32 40h-96c-17.67 0-32-17.9-32-40s14.33-40 32-40z" fill="#fff"/><path d="M744.54 681.87l3.12 1.46 3.17 2 1 .84m4.14 3.87l1.02 1.07 2.82 3.88 1.1 1.95m2.44 5.1l1.06 2.64 1.44 5.47m.78 5.62l.1.66.1 3.58-.25 4.24m-.82 5.6l-.44 2.34-1.76 5.46-.16.35m-2.48 5.1l-2.32 3.68-2.63 3.2m-4.15 3.86l-2.4 1.76-3.17 1.78-1.76.7m-5.44 1.53l-2.4.33-1.83.07h-4.8m-6.4 0h-9.6m-6.4 0h-9.6m-6.4 0h-9.6m-6.4 0h-9.6m-6.4 0h-9.6m-6.4 0h-4.8l-3.24-.2-.97-.2m-5.47-1.47l-3.1-1.46-3.18-2-1.02-.84m-4.12-3.87l-1.02-1.07-2.84-3.88-1.08-1.95m-2.45-5.1l-1.06-2.64-1.45-5.47m-.78-5.62l-.1-.66-.12-3.58.27-4.24m.8-5.6l.44-2.34 1.76-5.46.17-.35m2.46-5.1l2.32-3.68 2.63-3.2m4.16-3.86l2.4-1.76 3.17-1.78 1.75-.7m5.44-1.53l2.4-.33 1.83-.07h4.8m6.4 0h9.6m6.4 0h9.6m6.4 0h9.6m6.4 0h9.6m6.4 0h9.6m6.4 0h4.8l3.24.2.98.2" stroke="#b2b2b2" stroke-width="3" fill="none"/><use xlink:href="#J" transform="matrix(1,0,0,1,611.8534472146569,685) translate(21.200000000000003 38.6)"/><use xlink:href="#t" transform="matrix(1,0,0,1,611.8534472146569,685) translate(54.85 38.6)"/><path d="M447.35 835.62h-1v-12.26h1zm0-33.86h-1V782h1zM447.35 782h-1v-.5h1zM446.85 850.38l-4.63-14.26h9.27z" fill="#333"/><path d="M446.85 852l-5.32-16.38h10.65zm-3.94-15.38l3.95 12.14 3.95-12.14z" fill="#333"/><use xlink:href="#u" transform="matrix(1,0,0,1,428.853447214657,801.7594405594406) translate(0.004999999999999005 14.4)"/><path d="M366.85 867.92c0-4.42 3.56-8.44 7.94-9L518.9 841c4.4-.56 7.95 2.58 7.95 7v104c0 4.42-3.58 8-8 8h-144c-4.4 0-8-3.58-8-8z" stroke="#333" stroke-width="3" fill="#fff"/><use xlink:href="#K" transform="matrix(1,0,0,1,371.853447214657,865) translate(9.025000000000006 16.19999999999999)"/><use xlink:href="#L" transform="matrix(1,0,0,1,371.853447214657,865) translate(51.025000000000006 16.19999999999999)"/><use xlink:href="#M" transform="matrix(1,0,0,1,371.853447214657,865) translate(86.025 16.19999999999999)"/><use xlink:href="#N" transform="matrix(1,0,0,1,371.853447214657,865) translate(9.450000000000003 37.79999999999999)"/><use xlink:href="#O" transform="matrix(1,0,0,1,371.853447214657,865) translate(53.45 37.79999999999999)"/><use xlink:href="#P" transform="matrix(1,0,0,1,371.853447214657,865) translate(78.95 37.79999999999999)"/><use xlink:href="#Q" transform="matrix(1,0,0,1,371.853447214657,865) translate(18.25 59.39999999999999)"/><use xlink:href="#R" transform="matrix(1,0,0,1,371.853447214657,865) translate(104.2 59.39999999999999)"/><use xlink:href="#S" transform="matrix(1,0,0,1,371.853447214657,865) translate(28.1 81)"/><path d="M547.13 900.74h-18.28v-1h18.28zm41.84-.24h-14.9v-1h14.9z" fill="#333"/><path d="M528.87 900.74h-.52v-1h.52zM603.73 900l-14.26 4.64v-9.28z" fill="#333"/><path d="M605.35 900l-16.38 5.32v-10.64zm-15.38 3.95l12.15-3.95-12.15-3.95z" fill="#333"/><use xlink:href="#r" transform="matrix(1,0,0,1,547.1321674884035,889.4398699571285) translate(0.005000000000000782 14.4)"/><path d="M734.85 860c17.68 0 32 17.9 32 40s-14.32 40-32 40h-96c-17.67 0-32-17.9-32-40s14.33-40 32-40z" fill="#fff"/><path d="M744.54 861.87l3.12 1.46 3.17 2 1 .84m4.14 3.87l1.02 1.07 2.82 3.88 1.1 1.95m2.44 5.1l1.06 2.64 1.44 5.47m.78 5.62l.1.66.1 3.58-.25 4.24m-.82 5.6l-.44 2.34-1.76 5.46-.16.35m-2.48 5.1l-2.32 3.68-2.63 3.2m-4.15 3.86l-2.4 1.76-3.17 1.78-1.76.7m-5.44 1.53l-2.4.33-1.83.07h-4.8m-6.4 0h-9.6m-6.4 0h-9.6m-6.4 0h-9.6m-6.4 0h-9.6m-6.4 0h-9.6m-6.4 0h-4.8l-3.24-.2-.97-.2m-5.47-1.47l-3.1-1.46-3.18-2-1.02-.84m-4.12-3.87l-1.02-1.07-2.84-3.88-1.08-1.95m-2.45-5.1l-1.06-2.64-1.45-5.47m-.78-5.62l-.1-.66-.12-3.58.27-4.24m.8-5.6l.44-2.34 1.76-5.46.17-.35m2.46-5.1l2.32-3.68 2.63-3.2m4.16-3.86l2.4-1.76 3.17-1.78 1.75-.7m5.44-1.53l2.4-.33 1.83-.07h4.8m6.4 0h9.6m6.4 0h9.6m6.4 0h9.6m6.4 0h9.6m6.4 0h9.6m6.4 0h4.8l3.24.2.98.2" stroke="#b2b2b2" stroke-width="3" fill="none"/><use xlink:href="#T" transform="matrix(1,0,0,1,611.8534472146569,865) translate(25.525 38.6)"/><use xlink:href="#t" transform="matrix(1,0,0,1,611.8534472146569,865) translate(50.525 38.6)"/><path d="M364.85 719.74v1H354.1v-1zm-55.1.76v-1h8.46v1zM365.35 720.74h-.5v-1h.5zM309.24 724.64L294.97 720l14.27-4.64z" fill="#333"/><path d="M309.74 725.32l-16.4-5.32 16.4-5.32zM296.6 720l12.14 3.95v-7.9z" fill="#333"/><use xlink:href="#U" transform="matrix(1,0,0,1,318.2104809500096,709.4398699571285) translate(0.004999999999999005 14.4)"/><path d="M131.85 688c0-4.42 3.6-8 8-8h144c4.42 0 8 3.58 8 8v72c-26.72-13.36-43.36-13.36-53.44-13.36-16 0-37.27 13.36-53.27 13.36-9.92 0-26.72 0-53.28-13.36z" stroke="#b2b2b2" stroke-width="3" fill="#fff"/><use xlink:href="#V" transform="matrix(1,0,0,1,136.85344721465708,685) translate(34.025 21.299999999999997)"/><use xlink:href="#W" transform="matrix(1,0,0,1,136.85344721465708,685) translate(59.025 21.299999999999997)"/><use xlink:href="#X" transform="matrix(1,0,0,1,136.85344721465708,685) translate(91.975 21.299999999999997)"/><use xlink:href="#Y" transform="matrix(1,0,0,1,136.85344721465708,685) translate(36.025 42.9)"/><path d="M447.35 1017.78h-1v-13.42h1zm0-35.02h-1V962h1zM447.35 962h-1v-.5h1zM446.85 1032.54l-4.63-14.26h9.27z" fill="#333"/><path d="M446.85 1034.16l-5.32-16.38h10.65zm-3.94-15.38l3.95 12.14 3.95-12.14z" fill="#333"/><g><use xlink:href="#u" transform="matrix(1,0,0,1,428.853447214657,982.7587836003258) translate(0.004999999999999005 14.4)"/></g><path d="M366.85 1051.5c0-4.4 3.55-8.52 7.92-9.16l144.17-21.18c4.37-.64 7.9 2.42 7.9 6.84v125.6c0 4.42-3.57 8-8 8h-144c-4.4 0-8-3.58-8-8z" stroke="#333" stroke-width="3" fill="#fff"/><g><use xlink:href="#Z" transform="matrix(1,0,0,1,371.853447214657,1048.6) translate(17.224999999999994 14.899999999999993)"/><use xlink:href="#aa" transform="matrix(1,0,0,1,371.853447214657,1048.6) translate(54.224999999999994 14.899999999999993)"/><use xlink:href="#ab" transform="matrix(1,0,0,1,371.853447214657,1048.6) translate(2.075000000000003 36.49999999999999)"/><use xlink:href="#ac" transform="matrix(1,0,0,1,371.853447214657,1048.6) translate(75.025 36.49999999999999)"/><use xlink:href="#ad" transform="matrix(1,0,0,1,371.853447214657,1048.6) translate(134.97500000000002 36.49999999999999)"/><use xlink:href="#ae" transform="matrix(1,0,0,1,371.853447214657,1048.6) translate(9.174999999999983 58.099999999999994)"/><use xlink:href="#af" transform="matrix(1,0,0,1,371.853447214657,1048.6) translate(88.975 58.099999999999994)"/><use xlink:href="#ag" transform="matrix(1,0,0,1,371.853447214657,1048.6) translate(7.625 79.70000000000002)"/><use xlink:href="#ah" transform="matrix(1,0,0,1,371.853447214657,1048.6) translate(48.575 79.70000000000002)"/><use xlink:href="#ai" transform="matrix(1,0,0,1,371.853447214657,1048.6) translate(23.099999999999994 101.30000000000001)"/></g><path d="M543.5 1091.58h-14.65v-1h14.65zm45.47-.3h-9.47v-1h9.47z" fill="#333"/><path d="M528.87 1091.58h-.52v-1h.52zM603.73 1090.78l-14.26 4.64v-9.27z" fill="#333"/><path d="M605.35 1090.78l-16.38 5.32v-10.64zm-15.38 3.95l12.15-3.95-12.15-3.95z" fill="#333"/><g><use xlink:href="#u" transform="matrix(1,0,0,1,543.4971340780413,1080.2823899529228) translate(0.004999999999999005 14.4)"/></g><path d="M734.85 1050.78c17.68 0 32 17.9 32 40s-14.32 40-32 40h-96c-17.67 0-32-17.9-32-40s14.33-40 32-40z" fill="#fff"/><path d="M744.54 1052.65l3.12 1.46 3.17 2 1 .85m4.14 3.87l1.02 1.07 2.82 3.86 1.1 1.95m2.44 5.1l1.06 2.65 1.44 5.47m.78 5.62l.1.66.1 3.58-.25 4.25m-.82 5.6l-.44 2.33-1.76 5.46-.16.36m-2.48 5.1l-2.32 3.68-2.63 3.2m-4.15 3.86l-2.4 1.76-3.17 1.78-1.76.7m-5.44 1.54l-2.4.32-1.83.06h-4.8m-6.4 0h-9.6m-6.4 0h-9.6m-6.4 0h-9.6m-6.4 0h-9.6m-6.4 0h-9.6m-6.4 0h-4.8l-3.24-.2-.97-.2m-5.47-1.47l-3.1-1.45-3.18-2-1.02-.84m-4.12-3.86l-1.02-1.07-2.84-3.87-1.08-1.95m-2.45-5.1l-1.06-2.64-1.45-5.46m-.78-5.6l-.1-.68-.12-3.58.27-4.24m.8-5.6l.44-2.33 1.76-5.46.17-.35m2.46-5.1l2.32-3.7 2.63-3.2m4.16-3.86l2.4-1.76 3.17-1.77 1.75-.7m5.44-1.53l2.4-.32 1.83-.07h4.8m6.4 0h9.6m6.4 0h9.6m6.4 0h9.6m6.4 0h9.6m6.4 0h9.6m6.4 0h4.8l3.24.2.98.2" stroke="#b2b2b2" stroke-width="3" fill="none"/><g><use xlink:href="#aj" transform="matrix(1,0,0,1,611.8534472146569,1055.7812801982868) translate(25.525 38.6)"/><use xlink:href="#t" transform="matrix(1,0,0,1,611.8534472146569,1055.7812801982868) translate(50.525 38.6)"/></g><path d="M447.35 1222.12h-1v-18.6h1zm0-40.2h-1v-18.32h1zM447.35 1163.6h-1v-.5h1zM446.85 1236.88l-4.63-14.26h9.27z" fill="#333"/><path d="M446.85 1238.5l-5.32-16.38h10.65zm-3.94-15.38l3.95 12.14 3.95-12.14z" fill="#333"/><g><use xlink:href="#r" transform="matrix(1,0,0,1,433.378447214657,1181.9144702842377) translate(0.005000000000000782 14.4)"/></g><path d="M366.85 1248c0-4.42 3.6-8 8-8h144c4.42 0 8 3.58 8 8v64c0 4.42-3.58 8-8 8h-144c-4.4 0-8-3.58-8-8z" stroke="#333" stroke-width="3" fill="#6f7681"/><g><use xlink:href="#ak" transform="matrix(1,0,0,1,378.853447214657,1252) translate(26.074999999999996 14.4)"/><use xlink:href="#al" transform="matrix(1,0,0,1,378.853447214657,1252) translate(94.92500000000001 14.4)"/><use xlink:href="#am" transform="matrix(1,0,0,1,378.853447214657,1252) translate(25.574999999999996 36)"/><use xlink:href="#an" transform="matrix(1,0,0,1,378.853447214657,1252) translate(78.525 36)"/><use xlink:href="#ao" transform="matrix(1,0,0,1,378.853447214657,1252) translate(30.775 57.6)"/></g><path d="M549.67 1280.5h-20.82v-1h20.82zm39.3 0h-29.3v-1h29.3z" fill="#333"/><path d="M528.87 1280.5h-.52v-1h.52zM603.73 1280l-14.26 4.64v-9.28z" fill="#333"/><path d="M605.35 1280l-16.38 5.32v-10.64zm-15.38 3.95l12.15-3.95-12.15-3.95z" fill="#333"/><g><use xlink:href="#ap" transform="matrix(1,0,0,1,549.6696875611859,1269.2) translate(0.004999999999999893 14.4)"/></g><path d="M734.85 1240c17.68 0 32 17.9 32 40s-14.32 40-32 40h-96c-17.67 0-32-17.9-32-40s14.33-40 32-40z" fill="#fff"/><path d="M744.54 1241.87l3.12 1.46 3.17 2 1 .84m4.14 3.87l1.02 1.07 2.82 3.88 1.1 1.95m2.44 5.1l1.06 2.64 1.44 5.47m.78 5.62l.1.66.1 3.58-.25 4.24m-.82 5.6l-.44 2.34-1.76 5.46-.16.35m-2.48 5.1l-2.32 3.68-2.63 3.2m-4.15 3.86l-2.4 1.76-3.17 1.78-1.76.7m-5.44 1.53l-2.4.33-1.83.07h-4.8m-6.4 0h-9.6m-6.4 0h-9.6m-6.4 0h-9.6m-6.4 0h-9.6m-6.4 0h-9.6m-6.4 0h-4.8l-3.24-.2-.97-.2m-5.47-1.47l-3.1-1.46-3.18-2-1.02-.84m-4.12-3.87l-1.02-1.07-2.84-3.88-1.08-1.95m-2.45-5.1l-1.06-2.64-1.45-5.47m-.78-5.62l-.1-.66-.12-3.58.27-4.24m.8-5.6l.44-2.34 1.76-5.46.17-.35m2.46-5.1l2.32-3.68 2.63-3.2m4.16-3.86l2.4-1.76 3.17-1.78 1.75-.7m5.44-1.53l2.4-.33 1.83-.07h4.8m6.4 0h9.6m6.4 0h9.6m6.4 0h9.6m6.4 0h9.6m6.4 0h9.6m6.4 0h4.8l3.24.2.98.2" stroke="#b2b2b2" stroke-width="3" fill="none"/><g><use xlink:href="#aq" transform="matrix(1,0,0,1,611.8534472146569,1245) translate(25.525 38.6)"/><use xlink:href="#t" transform="matrix(1,0,0,1,611.8534472146569,1245) translate(50.525 38.6)"/></g><path d="M447.35 1382.12h-1v-20.58h1zm0-42.18h-1V1322h1zM447.35 1322h-1v-.5h1zM446.85 1396.88l-4.63-14.26h9.27z" fill="#333"/><path d="M446.85 1398.5l-5.32-16.38h10.65zm-3.94-15.38l3.95 12.14 3.95-12.14z" fill="#333"/><g><use xlink:href="#ar" transform="matrix(1,0,0,1,436.603447214657,1339.940506329114) translate(0.005000000000000782 14.4)"/></g><path d="M494.85 1400c17.68 0 32 17.9 32 40s-14.32 40-32 40h-96c-17.67 0-32-17.9-32-40s14.33-40 32-40z" stroke="#333" stroke-width="3" fill="#6f7681"/><g><use xlink:href="#as" transform="matrix(1,0,0,1,371.853447214657,1405) translate(25.074999999999996 17)"/><use xlink:href="#at" transform="matrix(1,0,0,1,371.853447214657,1405) translate(50.074999999999996 17)"/><use xlink:href="#au" transform="matrix(1,0,0,1,371.853447214657,1405) translate(33.599999999999994 38.6)"/><use xlink:href="#av" transform="matrix(1,0,0,1,371.853447214657,1405) translate(92.5 38.6)"/><use xlink:href="#aw" transform="matrix(1,0,0,1,371.853447214657,1405) translate(26.574999999999996 60.2)"/></g><defs><path fill="#a9afb8" d="M230 0l2-204L168 0h-37L68-204 70 0H24v-248h70l56 185 57-185h69V0h-46" id="ax"/><path fill="#a9afb8" d="M185-48c-13 30-37 53-82 52C43 2 14-33 14-96s30-98 90-98c62 0 83 45 84 108H66c0 31 8 55 39 56 18 0 30-7 34-22zm-45-69c5-46-57-63-70-21-2 6-4 13-4 21h74" id="ay"/><path fill="#a9afb8" d="M115-3C79 11 28 4 28-45v-112H4v-33h27l15-45h31v45h36v33H77v99c-1 23 16 31 38 25v30" id="az"/><path fill="#a9afb8" d="M133-34C117-15 103 5 69 4 32 3 11-16 11-54c-1-60 55-63 116-61 1-26-3-47-28-47-18 1-26 9-28 27l-52-2c7-38 36-58 82-57s74 22 75 68l1 82c-1 14 12 18 25 15v27c-30 8-71 5-69-32zm-48 3c29 0 43-24 42-57-32 0-66-3-65 30 0 17 8 27 23 27" id="aA"/><path fill="#a9afb8" d="M14-72v-43h91v43H14" id="aB"/><path fill="#a9afb8" d="M199 0l-22-63H83L61 0H9l90-248h61L250 0h-51zm-33-102l-36-108c-10 38-24 72-36 108h72" id="aC"/><path fill="#a9afb8" d="M135-194c87-1 58 113 63 194h-50c-7-57 23-157-34-157-59 0-34 97-39 157H25l-1-190h47c2 12-1 28 3 38 12-26 28-41 61-42" id="aD"/><path fill="#a9afb8" d="M25 0v-261h50V0H25" id="aE"/><path fill="#a9afb8" d="M123 10C108 53 80 86 19 72V37c35 8 53-11 59-39L3-190h52l48 148c12-52 28-100 44-148h51" id="aF"/><path fill="#a9afb8" d="M137-138c1-29-70-34-71-4 15 46 118 7 119 86 1 83-164 76-172 9l43-7c4 19 20 25 44 25 33 8 57-30 24-41C81-84 22-81 20-136c-2-80 154-74 161-7" id="aG"/><path fill="#a9afb8" d="M25-224v-37h50v37H25zM25 0v-190h50V0H25" id="aH"/><g id="a"><use transform="matrix(0.0728395061728395,0,0,0.0728395061728395,0,0)" xlink:href="#ax"/><use transform="matrix(0.0728395061728395,0,0,0.0728395061728395,21.77901234567901,0)" xlink:href="#ay"/><use transform="matrix(0.0728395061728395,0,0,0.0728395061728395,36.34691358024691,0)" xlink:href="#az"/><use transform="matrix(0.0728395061728395,0,0,0.0728395061728395,45.01481481481481,0)" xlink:href="#aA"/><use transform="matrix(0.0728395061728395,0,0,0.0728395061728395,59.582716049382704,0)" xlink:href="#aB"/><use transform="matrix(0.0728395061728395,0,0,0.0728395061728395,68.25061728395062,0)" xlink:href="#aC"/><use transform="matrix(0.0728395061728395,0,0,0.0728395061728395,87.11604938271607,0)" xlink:href="#aD"/><use transform="matrix(0.0728395061728395,0,0,0.0728395061728395,103.06790123456791,0)" xlink:href="#aA"/><use transform="matrix(0.0728395061728395,0,0,0.0728395061728395,117.63580246913581,0)" xlink:href="#aE"/><use transform="matrix(0.0728395061728395,0,0,0.0728395061728395,124.91975308641977,0)" xlink:href="#aF"/><use transform="matrix(0.0728395061728395,0,0,0.0728395061728395,139.48765432098767,0)" xlink:href="#aG"/><use transform="matrix(0.0728395061728395,0,0,0.0728395061728395,154.0555555555556,0)" xlink:href="#aH"/><use transform="matrix(0.0728395061728395,0,0,0.0728395061728395,161.33950617283955,0)" xlink:href="#aG"/></g><path fill="#a9afb8" d="M76-208v77h127v40H76V0H24v-248h183v40H76" id="aI"/><path fill="#a9afb8" d="M110-194c64 0 96 36 96 99 0 64-35 99-97 99-61 0-95-36-95-99 0-62 34-99 96-99zm-1 164c35 0 45-28 45-65 0-40-10-65-43-65-34 0-45 26-45 65 0 36 10 65 43 65" id="aJ"/><path fill="#a9afb8" d="M231 0h-52l-39-155L100 0H48L-1-190h46L77-45c9-52 24-97 36-145h53l37 145 32-145h46" id="aK"/><path fill="#a9afb8" d="M190-63c-7 42-38 67-86 67-59 0-84-38-90-98-12-110 154-137 174-36l-49 2c-2-19-15-32-35-32-30 0-35 28-38 64-6 74 65 87 74 30" id="aL"/><path fill="#a9afb8" d="M114-157C55-157 80-60 75 0H25v-261h50l-1 109c12-26 28-41 61-42 86-1 58 113 63 194h-50c-7-57 23-157-34-157" id="aM"/><path fill="#a9afb8" d="M135-150c-39-12-60 13-60 57V0H25l-1-190h47c2 13-1 29 3 40 6-28 27-53 61-41v41" id="aN"/><g id="b"><use transform="matrix(0.0728395061728395,0,0,0.0728395061728395,0,0)" xlink:href="#aI"/><use transform="matrix(0.0728395061728395,0,0,0.0728395061728395,15.95185185185185,0)" xlink:href="#aE"/><use transform="matrix(0.0728395061728395,0,0,0.0728395061728395,23.235802469135802,0)" xlink:href="#aJ"/><use transform="matrix(0.0728395061728395,0,0,0.0728395061728395,39.187654320987654,0)" xlink:href="#aK"/><use transform="matrix(0.0728395061728395,0,0,0.0728395061728395,59.582716049382704,0)" xlink:href="#aL"/><use transform="matrix(0.0728395061728395,0,0,0.0728395061728395,74.15061728395061,0)" xlink:href="#aM"/><use transform="matrix(0.0728395061728395,0,0,0.0728395061728395,90.10246913580247,0)" xlink:href="#aA"/><use transform="matrix(0.0728395061728395,0,0,0.0728395061728395,104.67037037037036,0)" xlink:href="#aN"/><use transform="matrix(0.0728395061728395,0,0,0.0728395061728395,114.8679012345679,0)" xlink:href="#az"/></g><path fill="#a9afb8" d="M205 0l-28-72H64L36 0H1l101-248h38L239 0h-34zm-38-99l-47-123c-12 45-31 82-46 123h93" id="aO"/><path fill="#a9afb8" d="M114-163C36-179 61-72 57 0H25l-1-190h30c1 12-1 29 2 39 6-27 23-49 58-41v29" id="aP"/><path fill="#a9afb8" d="M24-231v-30h32v30H24zM24 0v-190h32V0H24" id="aQ"/><path fill="#a9afb8" d="M100-194c63 0 86 42 84 106H49c0 40 14 67 53 68 26 1 43-12 49-29l28 8c-11 28-37 45-77 45C44 4 14-33 15-96c1-61 26-98 85-98zm52 81c6-60-76-77-97-28-3 7-6 17-6 28h103" id="aR"/><path fill="#a9afb8" d="M24 0v-261h32V0H24" id="aS"/><path fill="#a9afb8" d="M141-36C126-15 110 5 73 4 37 3 15-17 15-53c-1-64 63-63 125-63 3-35-9-54-41-54-24 1-41 7-42 31l-33-3c5-37 33-52 76-52 45 0 72 20 72 64v82c-1 20 7 32 28 27v20c-31 9-61-2-59-35zM48-53c0 20 12 33 32 33 41-3 63-29 60-74-43 2-92-5-92 41" id="aT"/><g id="c"><use transform="matrix(0.04248971193415638,0,0,0.04248971193415638,0,0)" xlink:href="#aO"/><use transform="matrix(0.04248971193415638,0,0,0.04248971193415638,10.19753086419753,0)" xlink:href="#aP"/><use transform="matrix(0.04248971193415638,0,0,0.04248971193415638,15.25380658436214,0)" xlink:href="#aQ"/><use transform="matrix(0.04248971193415638,0,0,0.04248971193415638,18.610493827160493,0)" xlink:href="#aR"/><use transform="matrix(0.04248971193415638,0,0,0.04248971193415638,27.108436213991762,0)" xlink:href="#aS"/><use transform="matrix(0.04248971193415638,0,0,0.04248971193415638,30.46512345679012,0)" xlink:href="#aS"/><use transform="matrix(0.04248971193415638,0,0,0.04248971193415638,33.821810699588475,0)" xlink:href="#aT"/></g><path fill="#a9afb8" d="M212-179c-10-28-35-45-73-45-59 0-87 40-87 99 0 60 29 101 89 101 43 0 62-24 78-52l27 14C228-24 195 4 139 4 59 4 22-46 18-125c-6-104 99-153 187-111 19 9 31 26 39 46" id="aU"/><path fill="#a9afb8" d="M100-194c62-1 85 37 85 99 1 63-27 99-86 99S16-35 15-95c0-66 28-99 85-99zM99-20c44 1 53-31 53-75 0-43-8-75-51-75s-53 32-53 75 10 74 51 75" id="aV"/><path fill="#a9afb8" d="M16-82v-28h88v28H16" id="aW"/><path fill="#a9afb8" d="M233-177c-1 41-23 64-60 70L243 0h-38l-65-103H63V0H30v-248c88 3 205-21 203 71zM63-129c60-2 137 13 137-47 0-61-80-42-137-45v92" id="aX"/><path fill="#a9afb8" d="M179-190L93 31C79 59 56 82 12 73V49c39 6 53-20 64-50L1-190h34L92-34l54-156h33" id="aY"/><g id="d"><use transform="matrix(0.04248971193415638,0,0,0.04248971193415638,0,0)" xlink:href="#aU"/><use transform="matrix(0.04248971193415638,0,0,0.04248971193415638,11.004835390946502,0)" xlink:href="#aV"/><use transform="matrix(0.04248971193415638,0,0,0.04248971193415638,19.502777777777776,0)" xlink:href="#aS"/><use transform="matrix(0.04248971193415638,0,0,0.04248971193415638,22.85946502057613,0)" xlink:href="#aR"/><use transform="matrix(0.04248971193415638,0,0,0.04248971193415638,31.357407407407408,0)" xlink:href="#aP"/><use transform="matrix(0.04248971193415638,0,0,0.04248971193415638,36.413683127572014,0)" xlink:href="#aW"/><use transform="matrix(0.04248971193415638,0,0,0.04248971193415638,41.46995884773662,0)" xlink:href="#aX"/><use transform="matrix(0.04248971193415638,0,0,0.04248971193415638,52.474794238683124,0)" xlink:href="#aR"/><use transform="matrix(0.04248971193415638,0,0,0.04248971193415638,60.9727366255144,0)" xlink:href="#aQ"/><use transform="matrix(0.04248971193415638,0,0,0.04248971193415638,64.32942386831276,0)" xlink:href="#aS"/><use transform="matrix(0.04248971193415638,0,0,0.04248971193415638,67.68611111111112,0)" xlink:href="#aS"/><use transform="matrix(0.04248971193415638,0,0,0.04248971193415638,71.04279835390948,0)" xlink:href="#aY"/></g><path fill="#a9afb8" d="M32 76v-337h29V76H32" id="aZ"/><use transform="matrix(0.04248971193415638,0,0,0.04248971193415638,0,0)" xlink:href="#aZ" id="e"/><path fill="#a9afb8" d="M240 0l2-218c-23 76-54 145-80 218h-23L58-218 59 0H30v-248h44l77 211c21-75 51-140 76-211h43V0h-30" id="ba"/><path fill="#a9afb8" d="M96-169c-40 0-48 33-48 73s9 75 48 75c24 0 41-14 43-38l32 2c-6 37-31 61-74 61-59 0-76-41-82-99-10-93 101-131 147-64 4 7 5 14 7 22l-32 3c-4-21-16-35-41-35" id="bb"/><path fill="#a9afb8" d="M106-169C34-169 62-67 57 0H25v-261h32l-1 103c12-21 28-36 61-36 89 0 53 116 60 194h-32v-121c2-32-8-49-39-48" id="bc"/><g id="f"><use transform="matrix(0.04248971193415638,0,0,0.04248971193415638,0,0)" xlink:href="#ba"/><use transform="matrix(0.04248971193415638,0,0,0.04248971193415638,12.704423868312757,0)" xlink:href="#aT"/><use transform="matrix(0.04248971193415638,0,0,0.04248971193415638,21.20236625514403,0)" xlink:href="#aP"/><use transform="matrix(0.04248971193415638,0,0,0.04248971193415638,26.25864197530864,0)" xlink:href="#bb"/><use transform="matrix(0.04248971193415638,0,0,0.04248971193415638,33.90679012345679,0)" xlink:href="#bc"/></g><path fill="#a9afb8" d="M27 0v-27h64v-190l-56 39v-29l58-41h29v221h61V0H27" id="bd"/><path fill="#a9afb8" d="M126-127c33 6 58 20 58 59 0 88-139 92-164 29-3-8-5-16-6-25l32-3c6 27 21 44 54 44 32 0 52-15 52-46 0-38-36-46-79-43v-28c39 1 72-4 72-42 0-27-17-43-46-43-28 0-47 15-49 41l-32-3c6-42 35-63 81-64 48-1 79 21 79 65 0 36-21 52-52 59" id="be"/><path fill="#a9afb8" d="M68-38c1 34 0 65-14 84H32c9-13 17-26 17-46H33v-38h35" id="bf"/><g id="g"><use transform="matrix(0.04248971193415638,0,0,0.04248971193415638,0,0)" xlink:href="#bd"/><use transform="matrix(0.04248971193415638,0,0,0.04248971193415638,8.497942386831275,0)" xlink:href="#be"/><use transform="matrix(0.04248971193415638,0,0,0.04248971193415638,16.99588477366255,0)" xlink:href="#bf"/></g><path fill="#a9afb8" d="M101-251c82-7 93 87 43 132L82-64C71-53 59-42 53-27h129V0H18c2-99 128-94 128-182 0-28-16-43-45-43s-46 15-49 41l-32-3c6-41 34-60 81-64" id="bg"/><path fill="#a9afb8" d="M101-251c68 0 85 55 85 127S166 4 100 4C33 4 14-52 14-124c0-73 17-127 87-127zm-1 229c47 0 54-49 54-102s-4-102-53-102c-51 0-55 48-55 102 0 53 5 102 54 102" id="bh"/><g id="h"><use transform="matrix(0.04248971193415638,0,0,0.04248971193415638,0,0)" xlink:href="#bg"/><use transform="matrix(0.04248971193415638,0,0,0.04248971193415638,8.497942386831275,0)" xlink:href="#bh"/><use transform="matrix(0.04248971193415638,0,0,0.04248971193415638,16.99588477366255,0)" xlink:href="#bg"/><use transform="matrix(0.04248971193415638,0,0,0.04248971193415638,25.493827160493822,0)" xlink:href="#bd"/></g><path fill="#fff" d="M175 0L67-191c6 58 2 128 3 191H24v-248h59L193-55c-6-58-2-129-3-193h46V0h-61" id="bi"/><path fill="#fff" d="M67-125c0 53 21 87 73 88 37 1 54-22 65-47l45 17C233-25 199 4 140 4 58 4 20-42 15-125 8-235 124-281 211-232c18 10 29 29 36 50l-46 12c-8-25-30-41-62-41-52 0-71 34-72 86" id="bj"/><path fill="#fff" d="M182-130c37 4 62 22 62 59C244 23 116-4 24 0v-248c84 5 203-23 205 63 0 31-19 50-47 55zM76-148c40-3 101 13 101-30 0-44-60-28-101-31v61zm0 110c48-3 116 14 116-37 0-48-69-32-116-35v72" id="bk"/><path fill="#fff" d="M24 0v-248h52V0H24" id="bl"/><g id="i"><use transform="matrix(0.05,0,0,0.05,0,0)" xlink:href="#bi"/><use transform="matrix(0.05,0,0,0.05,12.950000000000001,0)" xlink:href="#bj"/><use transform="matrix(0.05,0,0,0.05,25.900000000000002,0)" xlink:href="#bk"/><use transform="matrix(0.05,0,0,0.05,38.85,0)" xlink:href="#bl"/></g><path fill="#fff" d="M67-125c0 54 23 88 75 88 28 0 53-7 68-21v-34h-60v-39h108v91C232-14 192 4 140 4 58 4 20-42 15-125 8-236 126-280 215-234c19 10 29 26 37 47l-47 15c-11-23-29-39-63-39-53 1-75 33-75 86" id="bm"/><path fill="#fff" d="M24 0v-248h195v40H76v63h132v40H76v65h150V0H24" id="bn"/><path fill="#fff" d="M140-251c80 0 125 45 125 126S219 4 139 4C58 4 15-44 15-125s44-126 125-126zm-1 214c52 0 73-35 73-88 0-50-21-86-72-86-52 0-73 35-73 86s22 88 72 88" id="bo"/><g id="j"><use transform="matrix(0.05,0,0,0.05,0,0)" xlink:href="#bm"/><use transform="matrix(0.05,0,0,0.05,14,0)" xlink:href="#bn"/><use transform="matrix(0.05,0,0,0.05,26,0)" xlink:href="#bo"/></g><path fill="#fff" d="M30-248c118-7 216 8 213 122C240-48 200 0 122 0H30v-248zM63-27c89 8 146-16 146-99s-60-101-146-95v194" id="bp"/><path fill="#fff" d="M141-36C126-15 110 5 73 4 37 3 15-17 15-53c-1-64 63-63 125-63 3-35-9-54-41-54-24 1-41 7-42 31l-33-3c5-37 33-52 76-52 45 0 72 20 72 64v82c-1 20 7 32 28 27v20c-31 9-61-2-59-35zM48-53c0 20 12 33 32 33 41-3 63-29 60-74-43 2-92-5-92 41" id="bq"/><path fill="#fff" d="M59-47c-2 24 18 29 38 22v24C64 9 27 4 27-40v-127H5v-23h24l9-43h21v43h35v23H59v120" id="br"/><path fill="#fff" d="M135-143c-3-34-86-38-87 0 15 53 115 12 119 90S17 21 10-45l28-5c4 36 97 45 98 0-10-56-113-15-118-90-4-57 82-63 122-42 12 7 21 19 24 35" id="bs"/><path fill="#fff" d="M100-194c63 0 86 42 84 106H49c0 40 14 67 53 68 26 1 43-12 49-29l28 8c-11 28-37 45-77 45C44 4 14-33 15-96c1-61 26-98 85-98zm52 81c6-60-76-77-97-28-3 7-6 17-6 28h103" id="bt"/><g id="k"><use transform="matrix(0.05,0,0,0.05,0,0)" xlink:href="#bp"/><use transform="matrix(0.05,0,0,0.05,12.950000000000001,0)" xlink:href="#bq"/><use transform="matrix(0.05,0,0,0.05,22.950000000000003,0)" xlink:href="#br"/><use transform="matrix(0.05,0,0,0.05,27.950000000000003,0)" xlink:href="#bq"/><use transform="matrix(0.05,0,0,0.05,37.95,0)" xlink:href="#bs"/><use transform="matrix(0.05,0,0,0.05,46.95,0)" xlink:href="#bt"/><use transform="matrix(0.05,0,0,0.05,56.95,0)" xlink:href="#br"/><use transform="matrix(0.05,0,0,0.05,61.95,0)" xlink:href="#bs"/></g><path fill="#fff" d="M117-194c89-4 53 116 60 194h-32v-121c0-31-8-49-39-48C34-167 62-67 57 0H25l-1-190h30c1 10-1 24 2 32 11-22 29-35 61-36" id="bu"/><path fill="#fff" d="M18-150v-26h174v26H18zm0 90v-26h174v26H18" id="bv"/><path fill="#fff" d="M155-56V0h-30v-56H8v-25l114-167h33v167h35v25h-35zm-30-156c-27 46-58 90-88 131h88v-131" id="bw"/><path fill="#fff" d="M126-127c33 6 58 20 58 59 0 88-139 92-164 29-3-8-5-16-6-25l32-3c6 27 21 44 54 44 32 0 52-15 52-46 0-38-36-46-79-43v-28c39 1 72-4 72-42 0-27-17-43-46-43-28 0-47 15-49 41l-32-3c6-42 35-63 81-64 48-1 79 21 79 65 0 36-21 52-52 59" id="bx"/><path fill="#fff" d="M134-131c28 9 52 24 51 62-1 50-34 73-85 73S17-19 16-69c0-36 21-54 49-61-75-25-45-126 34-121 46 3 78 18 79 63 0 33-17 51-44 57zm-34-11c31 1 46-15 46-44 0-28-17-43-47-42-29 0-46 13-45 42 1 28 16 44 46 44zm1 122c35 0 51-18 51-52 0-30-18-46-53-46-33 0-51 17-51 47 0 34 19 51 53 51" id="by"/><g id="l"><use transform="matrix(0.05,0,0,0.05,0,0)" xlink:href="#bu"/><use transform="matrix(0.05,0,0,0.05,10,0)" xlink:href="#bv"/><use transform="matrix(0.05,0,0,0.05,20.5,0)" xlink:href="#bw"/><use transform="matrix(0.05,0,0,0.05,30.5,0)" xlink:href="#bx"/><use transform="matrix(0.05,0,0,0.05,40.5,0)" xlink:href="#bw"/><use transform="matrix(0.05,0,0,0.05,50.5,0)" xlink:href="#by"/></g><path fill="#fff" d="M63-220v92h138v28H63V0H30v-248h175v28H63" id="bz"/><path fill="#fff" d="M24-231v-30h32v30H24zM24 0v-190h32V0H24" id="bA"/><path fill="#fff" d="M24 0v-261h32V0H24" id="bB"/><path fill="#fff" d="M114-163C36-179 61-72 57 0H25l-1-190h30c1 12-1 29 2 39 6-27 23-49 58-41v29" id="bC"/><g id="m"><use transform="matrix(0.05,0,0,0.05,0,0)" xlink:href="#bz"/><use transform="matrix(0.05,0,0,0.05,10.950000000000001,0)" xlink:href="#bA"/><use transform="matrix(0.05,0,0,0.05,14.9,0)" xlink:href="#bB"/><use transform="matrix(0.05,0,0,0.05,18.85,0)" xlink:href="#br"/><use transform="matrix(0.05,0,0,0.05,23.85,0)" xlink:href="#bt"/><use transform="matrix(0.05,0,0,0.05,33.85,0)" xlink:href="#bC"/></g><path fill="#fff" d="M115-194c53 0 69 39 70 98 0 66-23 100-70 100C84 3 66-7 56-30L54 0H23l1-261h32v101c10-23 28-34 59-34zm-8 174c40 0 45-34 45-75 0-40-5-75-45-74-42 0-51 32-51 76 0 43 10 73 51 73" id="bD"/><path fill="#fff" d="M179-190L93 31C79 59 56 82 12 73V49c39 6 53-20 64-50L1-190h34L92-34l54-156h33" id="bE"/><g id="n"><use transform="matrix(0.05,0,0,0.05,0,0)" xlink:href="#bD"/><use transform="matrix(0.05,0,0,0.05,10,0)" xlink:href="#bE"/></g><path fill="#fff" d="M100-194c62-1 85 37 85 99 1 63-27 99-86 99S16-35 15-95c0-66 28-99 85-99zM99-20c44 1 53-31 53-75 0-43-8-75-51-75s-53 32-53 75 10 74 51 75" id="bF"/><path fill="#fff" d="M177-190C167-65 218 103 67 71c-23-6-38-20-44-43l32-5c15 47 100 32 89-28v-30C133-14 115 1 83 1 29 1 15-40 15-95c0-56 16-97 71-98 29-1 48 16 59 35 1-10 0-23 2-32h30zM94-22c36 0 50-32 50-73 0-42-14-75-50-75-39 0-46 34-46 75s6 73 46 73" id="bG"/><path fill="#fff" d="M210-169c-67 3-38 105-44 169h-31v-121c0-29-5-50-35-48C34-165 62-65 56 0H25l-1-190h30c1 10-1 24 2 32 10-44 99-50 107 0 11-21 27-35 58-36 85-2 47 119 55 194h-31v-121c0-29-5-49-35-48" id="bH"/><g id="o"><use transform="matrix(0.05,0,0,0.05,0,0)" xlink:href="#bF"/><use transform="matrix(0.05,0,0,0.05,10,0)" xlink:href="#bC"/><use transform="matrix(0.05,0,0,0.05,15.949999999999998,0)" xlink:href="#bG"/><use transform="matrix(0.05,0,0,0.05,25.950000000000003,0)" xlink:href="#bq"/><use transform="matrix(0.05,0,0,0.05,35.95,0)" xlink:href="#bu"/><use transform="matrix(0.05,0,0,0.05,45.95,0)" xlink:href="#bA"/><use transform="matrix(0.05,0,0,0.05,49.900000000000006,0)" xlink:href="#bs"/><use transform="matrix(0.05,0,0,0.05,58.900000000000006,0)" xlink:href="#bH"/></g><path fill="#fff" d="M115-194c55 1 70 41 70 98S169 2 115 4C84 4 66-9 55-30l1 105H24l-1-265h31l2 30c10-21 28-34 59-34zm-8 174c40 0 45-34 45-75s-6-73-45-74c-42 0-51 32-51 76 0 43 10 73 51 73" id="bI"/><path fill="#fff" d="M33-154v-36h34v36H33zM33 0v-36h34V0H33" id="bJ"/><g id="p"><use transform="matrix(0.05,0,0,0.05,0,0)" xlink:href="#br"/><use transform="matrix(0.05,0,0,0.05,5,0)" xlink:href="#bE"/><use transform="matrix(0.05,0,0,0.05,14,0)" xlink:href="#bI"/><use transform="matrix(0.05,0,0,0.05,24,0)" xlink:href="#bt"/><use transform="matrix(0.05,0,0,0.05,34,0)" xlink:href="#bJ"/></g><path fill="#fff" d="M220-157c-53 9-28 100-34 157h-49v-107c1-27-5-49-29-50C55-147 81-57 75 0H25l-1-190h47c2 12-1 28 3 38 10-53 101-56 108 0 13-22 24-43 59-42 82 1 51 116 57 194h-49v-107c-1-25-5-48-29-50" id="bK"/><path fill="#fff" d="M133-34C117-15 103 5 69 4 32 3 11-16 11-54c-1-60 55-63 116-61 1-26-3-47-28-47-18 1-26 9-28 27l-52-2c7-38 36-58 82-57s74 22 75 68l1 82c-1 14 12 18 25 15v27c-30 8-71 5-69-32zm-48 3c29 0 43-24 42-57-32 0-66-3-65 30 0 17 8 27 23 27" id="bL"/><path fill="#fff" d="M25 0v-261h50V0H25" id="bM"/><path fill="#fff" d="M25-224v-37h50v37H25zM25 0v-190h50V0H25" id="bN"/><path fill="#fff" d="M135-194c87-1 58 113 63 194h-50c-7-57 23-157-34-157-59 0-34 97-39 157H25l-1-190h47c2 12-1 28 3 38 12-26 28-41 61-42" id="bO"/><path fill="#fff" d="M103-251c84 0 111 97 45 133-19 10-37 24-39 52H78c0-63 77-55 77-114 0-30-21-42-52-43-32 0-53 17-56 46l-32-2c7-45 34-72 88-72zM77 0v-35h34V0H77" id="bP"/><g id="q"><use transform="matrix(0.05,0,0,0.05,0,0)" xlink:href="#bK"/><use transform="matrix(0.05,0,0,0.05,16,0)" xlink:href="#bL"/><use transform="matrix(0.05,0,0,0.05,26,0)" xlink:href="#bK"/><use transform="matrix(0.05,0,0,0.05,42,0)" xlink:href="#bK"/><use transform="matrix(0.05,0,0,0.05,58,0)" xlink:href="#bL"/><use transform="matrix(0.05,0,0,0.05,68,0)" xlink:href="#bM"/><use transform="matrix(0.05,0,0,0.05,73,0)" xlink:href="#bN"/><use transform="matrix(0.05,0,0,0.05,78,0)" xlink:href="#bL"/><use transform="matrix(0.05,0,0,0.05,88,0)" xlink:href="#bO"/><use transform="matrix(0.05,0,0,0.05,98.95,0)" xlink:href="#bP"/></g><path fill="#333" d="M190 0L58-211 59 0H30v-248h39L202-35l-2-213h31V0h-41" id="bQ"/><path fill="#333" d="M140-251c81 0 123 46 123 126C263-46 219 4 140 4 59 4 17-45 17-125s42-126 123-126zm0 227c63 0 89-41 89-101s-29-99-89-99c-61 0-89 39-89 99S79-25 140-24" id="bR"/><g id="r"><use transform="matrix(0.05,0,0,0.05,0,0)" xlink:href="#bQ"/><use transform="matrix(0.05,0,0,0.05,12.950000000000001,0)" xlink:href="#bR"/></g><path fill="#333" d="M54-142c48-35 137-8 131 61C196 18 31 33 14-55l32-4c7 23 22 37 52 37 35-1 51-22 54-58 4-55-73-65-99-34H22l8-134h141v27H59" id="bS"/><path fill="#333" d="M27 0v-27h64v-190l-56 39v-29l58-41h29v221h61V0H27" id="bT"/><path fill="#333" d="M126-127c33 6 58 20 58 59 0 88-139 92-164 29-3-8-5-16-6-25l32-3c6 27 21 44 54 44 32 0 52-15 52-46 0-38-36-46-79-43v-28c39 1 72-4 72-42 0-27-17-43-46-43-28 0-47 15-49 41l-32-3c6-42 35-63 81-64 48-1 79 21 79 65 0 36-21 52-52 59" id="bU"/><g id="s"><use transform="matrix(0.05,0,0,0.05,0,0)" xlink:href="#bS"/><use transform="matrix(0.05,0,0,0.05,10,0)" xlink:href="#bT"/><use transform="matrix(0.05,0,0,0.05,20,0)" xlink:href="#bU"/></g><path fill="#333" d="M30 0v-248h187v28H63v79h144v27H63v87h162V0H30" id="bV"/><path fill="#333" d="M141 0L90-78 38 0H4l68-98-65-92h35l48 74 47-74h35l-64 92 68 98h-35" id="bW"/><path fill="#333" d="M96-169c-40 0-48 33-48 73s9 75 48 75c24 0 41-14 43-38l32 2c-6 37-31 61-74 61-59 0-76-41-82-99-10-93 101-131 147-64 4 7 5 14 7 22l-32 3c-4-21-16-35-41-35" id="bX"/><path fill="#333" d="M24 0v-261h32V0H24" id="bY"/><path fill="#333" d="M84 4C-5 8 30-112 23-190h32v120c0 31 7 50 39 49 72-2 45-101 50-169h31l1 190h-30c-1-10 1-25-2-33-11 22-28 36-60 37" id="bZ"/><path fill="#333" d="M85-194c31 0 48 13 60 33l-1-100h32l1 261h-30c-2-10 0-23-3-31C134-8 116 4 85 4 32 4 16-35 15-94c0-66 23-100 70-100zm9 24c-40 0-46 34-46 75 0 40 6 74 45 74 42 0 51-32 51-76 0-42-9-74-50-73" id="ca"/><path fill="#333" d="M100-194c63 0 86 42 84 106H49c0 40 14 67 53 68 26 1 43-12 49-29l28 8c-11 28-37 45-77 45C44 4 14-33 15-96c1-61 26-98 85-98zm52 81c6-60-76-77-97-28-3 7-6 17-6 28h103" id="cb"/><g id="t"><use transform="matrix(0.05,0,0,0.05,0,0)" xlink:href="#bV"/><use transform="matrix(0.05,0,0,0.05,12,0)" xlink:href="#bW"/><use transform="matrix(0.05,0,0,0.05,21,0)" xlink:href="#bX"/><use transform="matrix(0.05,0,0,0.05,30,0)" xlink:href="#bY"/><use transform="matrix(0.05,0,0,0.05,33.95,0)" xlink:href="#bZ"/><use transform="matrix(0.05,0,0,0.05,43.95,0)" xlink:href="#ca"/><use transform="matrix(0.05,0,0,0.05,53.95,0)" xlink:href="#cb"/><use transform="matrix(0.05,0,0,0.05,63.95,0)" xlink:href="#ca"/></g><path fill="#333" d="M137-103V0h-34v-103L8-248h37l75 118 75-118h37" id="cc"/><path fill="#333" d="M185-189c-5-48-123-54-124 2 14 75 158 14 163 119 3 78-121 87-175 55-17-10-28-26-33-46l33-7c5 56 141 63 141-1 0-78-155-14-162-118-5-82 145-84 179-34 5 7 8 16 11 25" id="cd"/><g id="u"><use transform="matrix(0.05,0,0,0.05,0,0)" xlink:href="#cc"/><use transform="matrix(0.05,0,0,0.05,12,0)" xlink:href="#bV"/><use transform="matrix(0.05,0,0,0.05,24,0)" xlink:href="#cd"/></g><g id="v"><use transform="matrix(0.05,0,0,0.05,0,0)" xlink:href="#bD"/><use transform="matrix(0.05,0,0,0.05,10,0)" xlink:href="#bE"/></g><path fill="#fff" d="M84 4C-5 8 30-112 23-190h32v120c0 31 7 50 39 49 72-2 45-101 50-169h31l1 190h-30c-1-10 1-25-2-33-11 22-28 36-60 37" id="ce"/><g id="w"><use transform="matrix(0.05,0,0,0.05,0,0)" xlink:href="#bs"/><use transform="matrix(0.05,0,0,0.05,9,0)" xlink:href="#ce"/><use transform="matrix(0.05,0,0,0.05,19,0)" xlink:href="#bD"/><use transform="matrix(0.05,0,0,0.05,29,0)" xlink:href="#bs"/><use transform="matrix(0.05,0,0,0.05,38,0)" xlink:href="#bt"/><use transform="matrix(0.05,0,0,0.05,48,0)" xlink:href="#br"/></g><path fill="#fff" d="M108 0H70L1-190h34L89-25l56-165h34" id="cf"/><g id="x"><use transform="matrix(0.05,0,0,0.05,0,0)" xlink:href="#cf"/><use transform="matrix(0.05,0,0,0.05,9,0)" xlink:href="#bq"/><use transform="matrix(0.05,0,0,0.05,19,0)" xlink:href="#bC"/><use transform="matrix(0.05,0,0,0.05,24.95,0)" xlink:href="#bA"/><use transform="matrix(0.05,0,0,0.05,28.899999999999995,0)" xlink:href="#bq"/><use transform="matrix(0.05,0,0,0.05,38.9,0)" xlink:href="#bD"/><use transform="matrix(0.05,0,0,0.05,48.9,0)" xlink:href="#bB"/><use transform="matrix(0.05,0,0,0.05,52.85,0)" xlink:href="#bt"/></g><g id="y"><use transform="matrix(0.05,0,0,0.05,0,0)" xlink:href="#br"/><use transform="matrix(0.05,0,0,0.05,5,0)" xlink:href="#bE"/><use transform="matrix(0.05,0,0,0.05,14,0)" xlink:href="#bI"/><use transform="matrix(0.05,0,0,0.05,24,0)" xlink:href="#bt"/><use transform="matrix(0.05,0,0,0.05,34,0)" xlink:href="#bs"/><use transform="matrix(0.05,0,0,0.05,43,0)" xlink:href="#bJ"/></g><path fill="#fff" d="M96-169c-40 0-48 33-48 73s9 75 48 75c24 0 41-14 43-38l32 2c-6 37-31 61-74 61-59 0-76-41-82-99-10-93 101-131 147-64 4 7 5 14 7 22l-32 3c-4-21-16-35-41-35" id="cg"/><path fill="#fff" d="M85-194c31 0 48 13 60 33l-1-100h32l1 261h-30c-2-10 0-23-3-31C134-8 116 4 85 4 32 4 16-35 15-94c0-66 23-100 70-100zm9 24c-40 0-46 34-46 75 0 40 6 74 45 74 42 0 51-32 51-76 0-42-9-74-50-73" id="ch"/><g id="z"><use transform="matrix(0.05,0,0,0.05,0,0)" xlink:href="#bA"/><use transform="matrix(0.05,0,0,0.05,3.95,0)" xlink:href="#bu"/><use transform="matrix(0.05,0,0,0.05,13.949999999999998,0)" xlink:href="#cg"/><use transform="matrix(0.05,0,0,0.05,22.95,0)" xlink:href="#bB"/><use transform="matrix(0.05,0,0,0.05,26.899999999999995,0)" xlink:href="#ce"/><use transform="matrix(0.05,0,0,0.05,36.9,0)" xlink:href="#ch"/><use transform="matrix(0.05,0,0,0.05,46.9,0)" xlink:href="#bt"/></g><path fill="#fff" d="M195-6C206 82 75 100 31 46c-4-6-6-13-8-21l49-6c3 16 16 24 34 25 40 0 42-37 40-79-11 22-30 35-61 35-53 0-70-43-70-97 0-56 18-96 73-97 30 0 46 14 59 34l2-30h47zm-90-29c32 0 41-27 41-63 0-35-9-62-40-62-32 0-39 29-40 63 0 36 9 62 39 62" id="ci"/><path fill="#fff" d="M185-48c-13 30-37 53-82 52C43 2 14-33 14-96s30-98 90-98c62 0 83 45 84 108H66c0 31 8 55 39 56 18 0 30-7 34-22zm-45-69c5-46-57-63-70-21-2 6-4 13-4 21h74" id="cj"/><g id="A"><use transform="matrix(0.05,0,0,0.05,0,0)" xlink:href="#bL"/><use transform="matrix(0.05,0,0,0.05,10,0)" xlink:href="#ci"/><use transform="matrix(0.05,0,0,0.05,20.950000000000003,0)" xlink:href="#cj"/><use transform="matrix(0.05,0,0,0.05,30.950000000000003,0)" xlink:href="#bP"/></g><path fill="#333" d="M110-160c48 1 74 30 74 79 0 53-28 85-80 85-65 0-83-55-86-122-5-90 50-162 133-122 14 7 22 21 27 39l-31 6c-5-40-67-38-82-6-9 19-15 44-15 74 11-20 30-34 60-33zm-7 138c34 0 49-23 49-58s-16-56-50-56c-29 0-50 16-49 49 1 36 15 65 50 65" id="ck"/><path fill="#333" d="M155-56V0h-30v-56H8v-25l114-167h33v167h35v25h-35zm-30-156c-27 46-58 90-88 131h88v-131" id="cl"/><g id="B"><use transform="matrix(0.05,0,0,0.05,0,0)" xlink:href="#bU"/><use transform="matrix(0.05,0,0,0.05,10,0)" xlink:href="#ck"/><use transform="matrix(0.05,0,0,0.05,20,0)" xlink:href="#bT"/><use transform="matrix(0.05,0,0,0.05,30,0)" xlink:href="#cl"/></g><path fill="#333" d="M33 0v-248h34V0H33" id="cm"/><path fill="#333" d="M117-194c89-4 53 116 60 194h-32v-121c0-31-8-49-39-48C34-167 62-67 57 0H25l-1-190h30c1 10-1 24 2 32 11-22 29-35 61-36" id="cn"/><path fill="#333" d="M135-143c-3-34-86-38-87 0 15 53 115 12 119 90S17 21 10-45l28-5c4 36 97 45 98 0-10-56-113-15-118-90-4-57 82-63 122-42 12 7 21 19 24 35" id="co"/><g id="C"><use transform="matrix(0.05,0,0,0.05,0,0)" xlink:href="#cm"/><use transform="matrix(0.05,0,0,0.05,5,0)" xlink:href="#cn"/><use transform="matrix(0.05,0,0,0.05,15,0)" xlink:href="#bX"/><use transform="matrix(0.05,0,0,0.05,24,0)" xlink:href="#bZ"/><use transform="matrix(0.05,0,0,0.05,34,0)" xlink:href="#ca"/><use transform="matrix(0.05,0,0,0.05,44,0)" xlink:href="#cb"/><use transform="matrix(0.05,0,0,0.05,54,0)" xlink:href="#co"/></g><path fill="#333" d="M59-47c-2 24 18 29 38 22v24C64 9 27 4 27-40v-127H5v-23h24l9-43h21v43h35v23H59v120" id="cp"/><path fill="#333" d="M206 0h-36l-40-164L89 0H53L-1-190h32L70-26l43-164h34l41 164 42-164h31" id="cq"/><path fill="#333" d="M100-194c62-1 85 37 85 99 1 63-27 99-86 99S16-35 15-95c0-66 28-99 85-99zM99-20c44 1 53-31 53-75 0-43-8-75-51-75s-53 32-53 75 10 74 51 75" id="cr"/><g id="D"><use transform="matrix(0.05,0,0,0.05,0,0)" xlink:href="#cp"/><use transform="matrix(0.05,0,0,0.05,5,0)" xlink:href="#cq"/><use transform="matrix(0.05,0,0,0.05,17.950000000000003,0)" xlink:href="#cr"/></g><path fill="#333" d="M114-163C36-179 61-72 57 0H25l-1-190h30c1 12-1 29 2 39 6-27 23-49 58-41v29" id="cs"/><g id="E"><use transform="matrix(0.05,0,0,0.05,0,0)" xlink:href="#cr"/><use transform="matrix(0.05,0,0,0.05,10,0)" xlink:href="#cs"/></g><path fill="#333" d="M210-169c-67 3-38 105-44 169h-31v-121c0-29-5-50-35-48C34-165 62-65 56 0H25l-1-190h30c1 10-1 24 2 32 10-44 99-50 107 0 11-21 27-35 58-36 85-2 47 119 55 194h-31v-121c0-29-5-49-35-48" id="ct"/><g id="F"><use transform="matrix(0.05,0,0,0.05,0,0)" xlink:href="#ct"/><use transform="matrix(0.05,0,0,0.05,14.950000000000001,0)" xlink:href="#cr"/><use transform="matrix(0.05,0,0,0.05,24.950000000000003,0)" xlink:href="#cs"/><use transform="matrix(0.05,0,0,0.05,30.900000000000002,0)" xlink:href="#cb"/></g><path fill="#333" d="M141-36C126-15 110 5 73 4 37 3 15-17 15-53c-1-64 63-63 125-63 3-35-9-54-41-54-24 1-41 7-42 31l-33-3c5-37 33-52 76-52 45 0 72 20 72 64v82c-1 20 7 32 28 27v20c-31 9-61-2-59-35zM48-53c0 20 12 33 32 33 41-3 63-29 60-74-43 2-92-5-92 41" id="cu"/><g id="G"><use transform="matrix(0.05,0,0,0.05,0,0)" xlink:href="#cu"/><use transform="matrix(0.05,0,0,0.05,10,0)" xlink:href="#ca"/><use transform="matrix(0.05,0,0,0.05,20,0)" xlink:href="#bZ"/><use transform="matrix(0.05,0,0,0.05,30,0)" xlink:href="#bY"/><use transform="matrix(0.05,0,0,0.05,33.95,0)" xlink:href="#cp"/></g><path fill="#333" d="M177-190C167-65 218 103 67 71c-23-6-38-20-44-43l32-5c15 47 100 32 89-28v-30C133-14 115 1 83 1 29 1 15-40 15-95c0-56 16-97 71-98 29-1 48 16 59 35 1-10 0-23 2-32h30zM94-22c36 0 50-32 50-73 0-42-14-75-50-75-39 0-46 34-46 75s6 73 46 73" id="cv"/><g id="H"><use transform="matrix(0.05,0,0,0.05,0,0)" xlink:href="#cu"/><use transform="matrix(0.05,0,0,0.05,10,0)" xlink:href="#cv"/><use transform="matrix(0.05,0,0,0.05,20,0)" xlink:href="#cb"/></g><path fill="#333" d="M115-194c55 1 70 41 70 98S169 2 115 4C84 4 66-9 55-30l1 105H24l-1-265h31l2 30c10-21 28-34 59-34zm-8 174c40 0 45-34 45-75s-6-73-45-74c-42 0-51 32-51 76 0 43 10 73 51 73" id="cw"/><path fill="#333" d="M103-251c84 0 111 97 45 133-19 10-37 24-39 52H78c0-63 77-55 77-114 0-30-21-42-52-43-32 0-53 17-56 46l-32-2c7-45 34-72 88-72zM77 0v-35h34V0H77" id="cx"/><g id="I"><use transform="matrix(0.05,0,0,0.05,0,0)" xlink:href="#cv"/><use transform="matrix(0.05,0,0,0.05,10,0)" xlink:href="#cs"/><use transform="matrix(0.05,0,0,0.05,15.949999999999998,0)" xlink:href="#cr"/><use transform="matrix(0.05,0,0,0.05,25.950000000000003,0)" xlink:href="#bZ"/><use transform="matrix(0.05,0,0,0.05,35.95,0)" xlink:href="#cw"/><use transform="matrix(0.05,0,0,0.05,45.95,0)" xlink:href="#co"/><use transform="matrix(0.05,0,0,0.05,54.95,0)" xlink:href="#cx"/></g><path fill="#333" d="M99-251c64 0 84 50 84 122C183-37 130 33 47-8c-14-7-20-23-25-40l30-5c6 39 69 39 84 7 9-19 16-44 16-74-10 22-31 35-62 35-49 0-73-33-73-83 0-54 28-83 82-83zm-1 141c31-1 51-18 51-49 0-36-14-67-51-67-34 0-49 23-49 58 0 34 15 58 49 58" id="cy"/><g id="J"><use transform="matrix(0.05,0,0,0.05,0,0)" xlink:href="#bT"/><use transform="matrix(0.05,0,0,0.05,8.65,0)" xlink:href="#bT"/><use transform="matrix(0.05,0,0,0.05,18.65,0)" xlink:href="#cy"/></g><path fill="#333" d="M160-131c35 5 61 23 61 61C221 17 115-2 30 0v-248c76 3 177-17 177 60 0 33-19 50-47 57zm-97-11c50-1 110 9 110-42 0-47-63-36-110-37v79zm0 115c55-2 124 14 124-45 0-56-70-42-124-44v89" id="cz"/><path fill="#333" d="M106-169C34-169 62-67 57 0H25v-261h32l-1 103c12-21 28-36 61-36 89 0 53 116 60 194h-32v-121c2-32-8-49-39-48" id="cA"/><g id="K"><use transform="matrix(0.05,0,0,0.05,0,0)" xlink:href="#cz"/><use transform="matrix(0.05,0,0,0.05,12,0)" xlink:href="#cr"/><use transform="matrix(0.05,0,0,0.05,22,0)" xlink:href="#cp"/><use transform="matrix(0.05,0,0,0.05,27,0)" xlink:href="#cA"/></g><g id="L"><use transform="matrix(0.05,0,0,0.05,0,0)" xlink:href="#cu"/><use transform="matrix(0.05,0,0,0.05,10,0)" xlink:href="#cv"/><use transform="matrix(0.05,0,0,0.05,20,0)" xlink:href="#cb"/></g><g id="M"><use transform="matrix(0.05,0,0,0.05,0,0)" xlink:href="#cv"/><use transform="matrix(0.05,0,0,0.05,10,0)" xlink:href="#cs"/><use transform="matrix(0.05,0,0,0.05,15.949999999999998,0)" xlink:href="#cr"/><use transform="matrix(0.05,0,0,0.05,25.950000000000003,0)" xlink:href="#bZ"/><use transform="matrix(0.05,0,0,0.05,35.95,0)" xlink:href="#cw"/><use transform="matrix(0.05,0,0,0.05,45.95,0)" xlink:href="#co"/></g><path fill="#333" d="M108 0H70L1-190h34L89-25l56-165h34" id="cB"/><g id="N"><use transform="matrix(0.05,0,0,0.05,0,0)" xlink:href="#cA"/><use transform="matrix(0.05,0,0,0.05,10,0)" xlink:href="#cu"/><use transform="matrix(0.05,0,0,0.05,20,0)" xlink:href="#cB"/><use transform="matrix(0.05,0,0,0.05,29,0)" xlink:href="#cb"/></g><path fill="#333" d="M18-27v-27l151-64-151-65v-27l175 74v36" id="cC"/><path fill="#333" d="M101-251c82-7 93 87 43 132L82-64C71-53 59-42 53-27h129V0H18c2-99 128-94 128-182 0-28-16-43-45-43s-46 15-49 41l-32-3c6-41 34-60 81-64" id="cD"/><g id="O"><use transform="matrix(0.05,0,0,0.05,0,0)" xlink:href="#cC"/><use transform="matrix(0.05,0,0,0.05,10.5,0)" xlink:href="#cD"/></g><path fill="#333" d="M179-190L93 31C79 59 56 82 12 73V49c39 6 53-20 64-50L1-190h34L92-34l54-156h33" id="cE"/><path fill="#333" d="M68-38c1 34 0 65-14 84H32c9-13 17-26 17-46H33v-38h35" id="cF"/><g id="P"><use transform="matrix(0.05,0,0,0.05,0,0)" xlink:href="#cA"/><use transform="matrix(0.05,0,0,0.05,10,0)" xlink:href="#cb"/><use transform="matrix(0.05,0,0,0.05,20,0)" xlink:href="#cu"/><use transform="matrix(0.05,0,0,0.05,30,0)" xlink:href="#bY"/><use transform="matrix(0.05,0,0,0.05,33.95,0)" xlink:href="#cp"/><use transform="matrix(0.05,0,0,0.05,38.95,0)" xlink:href="#cA"/><use transform="matrix(0.05,0,0,0.05,48.95,0)" xlink:href="#cE"/><use transform="matrix(0.05,0,0,0.05,56.6,0)" xlink:href="#cF"/></g><g id="Q"><use transform="matrix(0.05,0,0,0.05,0,0)" xlink:href="#bZ"/><use transform="matrix(0.05,0,0,0.05,10,0)" xlink:href="#cn"/><use transform="matrix(0.05,0,0,0.05,20,0)" xlink:href="#cp"/><use transform="matrix(0.05,0,0,0.05,25,0)" xlink:href="#cs"/><use transform="matrix(0.05,0,0,0.05,30.950000000000003,0)" xlink:href="#cb"/><use transform="matrix(0.05,0,0,0.05,40.95,0)" xlink:href="#cu"/><use transform="matrix(0.05,0,0,0.05,50.95,0)" xlink:href="#cp"/><use transform="matrix(0.05,0,0,0.05,55.95,0)" xlink:href="#cb"/><use transform="matrix(0.05,0,0,0.05,65.95,0)" xlink:href="#ca"/><use transform="matrix(0.05,0,0,0.05,75.95,0)" xlink:href="#cF"/></g><path fill="#333" d="M266 0h-40l-56-210L115 0H75L2-248h35L96-30l15-64 43-154h32l59 218 59-218h35" id="cG"/><path fill="#333" d="M127-220V0H93v-220H8v-28h204v28h-85" id="cH"/><g id="R"><use transform="matrix(0.05,0,0,0.05,0,0)" xlink:href="#cG"/><use transform="matrix(0.05,0,0,0.05,16.95,0)" xlink:href="#cH"/></g><path fill="#333" d="M24-231v-30h32v30H24zM24 0v-190h32V0H24" id="cI"/><g id="S"><use transform="matrix(0.05,0,0,0.05,0,0)" xlink:href="#cI"/><use transform="matrix(0.05,0,0,0.05,3.95,0)" xlink:href="#cn"/><use transform="matrix(0.05,0,0,0.05,13.949999999999998,0)" xlink:href="#ca"/><use transform="matrix(0.05,0,0,0.05,23.95,0)" xlink:href="#cI"/><use transform="matrix(0.05,0,0,0.05,27.899999999999995,0)" xlink:href="#cB"/><use transform="matrix(0.05,0,0,0.05,36.9,0)" xlink:href="#cI"/><use transform="matrix(0.05,0,0,0.05,40.85,0)" xlink:href="#ca"/><use transform="matrix(0.05,0,0,0.05,50.85,0)" xlink:href="#bZ"/><use transform="matrix(0.05,0,0,0.05,60.85,0)" xlink:href="#cu"/><use transform="matrix(0.05,0,0,0.05,70.85,0)" xlink:href="#bY"/><use transform="matrix(0.05,0,0,0.05,74.8,0)" xlink:href="#co"/><use transform="matrix(0.05,0,0,0.05,83.8,0)" xlink:href="#cx"/></g><g id="T"><use transform="matrix(0.05,0,0,0.05,0,0)" xlink:href="#cD"/><use transform="matrix(0.05,0,0,0.05,10,0)" xlink:href="#bU"/></g><path fill="#333" d="M30-248c118-7 216 8 213 122C240-48 200 0 122 0H30v-248zM63-27c89 8 146-16 146-99s-60-101-146-95v194" id="cJ"/><g id="U"><use transform="matrix(0.05,0,0,0.05,0,0)" xlink:href="#cH"/><use transform="matrix(0.05,0,0,0.05,10.950000000000001,0)" xlink:href="#cz"/><use transform="matrix(0.05,0,0,0.05,22.950000000000003,0)" xlink:href="#cJ"/></g><g id="V"><use transform="matrix(0.05,0,0,0.05,0,0)" xlink:href="#bU"/><use transform="matrix(0.05,0,0,0.05,10,0)" xlink:href="#bT"/></g><g id="W"><use transform="matrix(0.05,0,0,0.05,0,0)" xlink:href="#bQ"/><use transform="matrix(0.05,0,0,0.05,12.950000000000001,0)" xlink:href="#cr"/><use transform="matrix(0.05,0,0,0.05,22.950000000000003,0)" xlink:href="#cp"/></g><g id="X"><use transform="matrix(0.05,0,0,0.05,0,0)" xlink:href="#cE"/><use transform="matrix(0.05,0,0,0.05,9,0)" xlink:href="#cb"/><use transform="matrix(0.05,0,0,0.05,19,0)" xlink:href="#cp"/></g><g id="Y"><use transform="matrix(0.05,0,0,0.05,0,0)" xlink:href="#cb"/><use transform="matrix(0.05,0,0,0.05,10,0)" xlink:href="#cB"/><use transform="matrix(0.05,0,0,0.05,19,0)" xlink:href="#cu"/><use transform="matrix(0.05,0,0,0.05,29,0)" xlink:href="#bY"/><use transform="matrix(0.05,0,0,0.05,32.95,0)" xlink:href="#bZ"/><use transform="matrix(0.05,0,0,0.05,42.95,0)" xlink:href="#cu"/><use transform="matrix(0.05,0,0,0.05,52.95,0)" xlink:href="#cp"/><use transform="matrix(0.05,0,0,0.05,57.95,0)" xlink:href="#cb"/><use transform="matrix(0.05,0,0,0.05,67.95,0)" xlink:href="#ca"/></g><path fill="#333" d="M205 0l-28-72H64L36 0H1l101-248h38L239 0h-34zm-38-99l-47-123c-12 45-31 82-46 123h93" id="cK"/><g id="Z"><use transform="matrix(0.05,0,0,0.05,0,0)" xlink:href="#cK"/><use transform="matrix(0.05,0,0,0.05,12,0)" xlink:href="#cv"/><use transform="matrix(0.05,0,0,0.05,22,0)" xlink:href="#cb"/></g><path fill="#333" d="M101-234c-31-9-42 10-38 44h38v23H63V0H32v-167H5v-23h27c-7-52 17-82 69-68v24" id="cL"/><g id="aa"><use transform="matrix(0.05,0,0,0.05,0,0)" xlink:href="#ca"/><use transform="matrix(0.05,0,0,0.05,10,0)" xlink:href="#cI"/><use transform="matrix(0.05,0,0,0.05,13.949999999999998,0)" xlink:href="#cL"/><use transform="matrix(0.05,0,0,0.05,18.6,0)" xlink:href="#cL"/><use transform="matrix(0.05,0,0,0.05,23.6,0)" xlink:href="#cb"/><use transform="matrix(0.05,0,0,0.05,33.6,0)" xlink:href="#cs"/><use transform="matrix(0.05,0,0,0.05,39.550000000000004,0)" xlink:href="#cb"/><use transform="matrix(0.05,0,0,0.05,49.550000000000004,0)" xlink:href="#cn"/><use transform="matrix(0.05,0,0,0.05,59.550000000000004,0)" xlink:href="#bX"/><use transform="matrix(0.05,0,0,0.05,68.55000000000001,0)" xlink:href="#cb"/></g><path fill="#333" d="M115-194c53 0 69 39 70 98 0 66-23 100-70 100C84 3 66-7 56-30L54 0H23l1-261h32v101c10-23 28-34 59-34zm-8 174c40 0 45-34 45-75 0-40-5-75-45-74-42 0-51 32-51 76 0 43 10 73 51 73" id="cM"/><g id="ab"><use transform="matrix(0.05,0,0,0.05,0,0)" xlink:href="#cM"/><use transform="matrix(0.05,0,0,0.05,10,0)" xlink:href="#cb"/><use transform="matrix(0.05,0,0,0.05,20,0)" xlink:href="#cp"/><use transform="matrix(0.05,0,0,0.05,25,0)" xlink:href="#cq"/><use transform="matrix(0.05,0,0,0.05,37.95,0)" xlink:href="#cb"/><use transform="matrix(0.05,0,0,0.05,47.95,0)" xlink:href="#cb"/><use transform="matrix(0.05,0,0,0.05,57.95,0)" xlink:href="#cn"/></g><g id="ac"><use transform="matrix(0.05,0,0,0.05,0,0)" xlink:href="#cv"/><use transform="matrix(0.05,0,0,0.05,10,0)" xlink:href="#cs"/><use transform="matrix(0.05,0,0,0.05,15.949999999999998,0)" xlink:href="#cr"/><use transform="matrix(0.05,0,0,0.05,25.950000000000003,0)" xlink:href="#bZ"/><use transform="matrix(0.05,0,0,0.05,35.95,0)" xlink:href="#cw"/><use transform="matrix(0.05,0,0,0.05,45.95,0)" xlink:href="#co"/></g><g id="ad"><use transform="matrix(0.05,0,0,0.05,0,0)" xlink:href="#cI"/><use transform="matrix(0.05,0,0,0.05,3.95,0)" xlink:href="#co"/></g><g id="ae"><use transform="matrix(0.05,0,0,0.05,0,0)" xlink:href="#cn"/><use transform="matrix(0.05,0,0,0.05,10,0)" xlink:href="#cb"/><use transform="matrix(0.05,0,0,0.05,20,0)" xlink:href="#cv"/><use transform="matrix(0.05,0,0,0.05,30,0)" xlink:href="#bY"/><use transform="matrix(0.05,0,0,0.05,33.95,0)" xlink:href="#cI"/><use transform="matrix(0.05,0,0,0.05,37.900000000000006,0)" xlink:href="#cv"/><use transform="matrix(0.05,0,0,0.05,47.900000000000006,0)" xlink:href="#cI"/><use transform="matrix(0.05,0,0,0.05,51.85,0)" xlink:href="#cM"/><use transform="matrix(0.05,0,0,0.05,61.85,0)" xlink:href="#bY"/><use transform="matrix(0.05,0,0,0.05,65.80000000000001,0)" xlink:href="#cE"/></g><g id="af"><use transform="matrix(0.05,0,0,0.05,0,0)" xlink:href="#co"/><use transform="matrix(0.05,0,0,0.05,9,0)" xlink:href="#ct"/><use transform="matrix(0.05,0,0,0.05,23.950000000000003,0)" xlink:href="#cu"/><use transform="matrix(0.05,0,0,0.05,33.95,0)" xlink:href="#bY"/><use transform="matrix(0.05,0,0,0.05,37.900000000000006,0)" xlink:href="#bY"/><use transform="matrix(0.05,0,0,0.05,41.85000000000001,0)" xlink:href="#cx"/></g><path fill="#333" d="M87 75C49 33 22-17 22-94c0-76 28-126 65-167h31c-38 41-64 92-64 168S80 34 118 75H87" id="cN"/><path fill="#333" d="M33 0v-38h34V0H33" id="cO"/><g id="ag"><use transform="matrix(0.05,0,0,0.05,0,0)" xlink:href="#cN"/><use transform="matrix(0.05,0,0,0.05,5.95,0)" xlink:href="#cb"/><use transform="matrix(0.05,0,0,0.05,15.949999999999998,0)" xlink:href="#cO"/><use transform="matrix(0.05,0,0,0.05,20.95,0)" xlink:href="#cv"/><use transform="matrix(0.05,0,0,0.05,30.950000000000003,0)" xlink:href="#cO"/></g><path fill="#333" d="M16-82v-28h88v28H16" id="cP"/><g id="ah"><use transform="matrix(0.05,0,0,0.05,0,0)" xlink:href="#cp"/><use transform="matrix(0.05,0,0,0.05,5,0)" xlink:href="#cI"/><use transform="matrix(0.05,0,0,0.05,8.95,0)" xlink:href="#ct"/><use transform="matrix(0.05,0,0,0.05,23.9,0)" xlink:href="#cb"/><use transform="matrix(0.05,0,0,0.05,33.9,0)" xlink:href="#cP"/><use transform="matrix(0.05,0,0,0.05,39.85,0)" xlink:href="#bX"/><use transform="matrix(0.05,0,0,0.05,48.85,0)" xlink:href="#cr"/><use transform="matrix(0.05,0,0,0.05,58.85,0)" xlink:href="#bZ"/><use transform="matrix(0.05,0,0,0.05,68.85,0)" xlink:href="#cs"/><use transform="matrix(0.05,0,0,0.05,74.8,0)" xlink:href="#co"/><use transform="matrix(0.05,0,0,0.05,83.8,0)" xlink:href="#cb"/></g><path fill="#333" d="M33-261c38 41 65 92 65 168S71 34 33 75H2C39 34 66-17 66-93S39-220 2-261h31" id="cQ"/><g id="ai"><use transform="matrix(0.05,0,0,0.05,0,0)" xlink:href="#cb"/><use transform="matrix(0.05,0,0,0.05,10,0)" xlink:href="#bW"/><use transform="matrix(0.05,0,0,0.05,19,0)" xlink:href="#cw"/><use transform="matrix(0.05,0,0,0.05,29,0)" xlink:href="#cb"/><use transform="matrix(0.05,0,0,0.05,39,0)" xlink:href="#cs"/><use transform="matrix(0.05,0,0,0.05,44.95,0)" xlink:href="#cI"/><use transform="matrix(0.05,0,0,0.05,48.900000000000006,0)" xlink:href="#ct"/><use transform="matrix(0.05,0,0,0.05,63.85,0)" xlink:href="#cb"/><use transform="matrix(0.05,0,0,0.05,73.85000000000001,0)" xlink:href="#cn"/><use transform="matrix(0.05,0,0,0.05,83.85000000000001,0)" xlink:href="#cp"/><use transform="matrix(0.05,0,0,0.05,88.85000000000001,0)" xlink:href="#co"/><use transform="matrix(0.05,0,0,0.05,97.85000000000001,0)" xlink:href="#cQ"/></g><g id="aj"><use transform="matrix(0.05,0,0,0.05,0,0)" xlink:href="#bT"/><use transform="matrix(0.05,0,0,0.05,10,0)" xlink:href="#bU"/></g><path fill="#fff" d="M190 0L58-211 59 0H30v-248h39L202-35l-2-213h31V0h-41" id="cR"/><g id="ak"><use transform="matrix(0.05,0,0,0.05,0,0)" xlink:href="#cR"/><use transform="matrix(0.05,0,0,0.05,12.950000000000001,0)" xlink:href="#ce"/><use transform="matrix(0.05,0,0,0.05,22.950000000000003,0)" xlink:href="#bH"/><use transform="matrix(0.05,0,0,0.05,37.900000000000006,0)" xlink:href="#bD"/><use transform="matrix(0.05,0,0,0.05,47.900000000000006,0)" xlink:href="#bt"/><use transform="matrix(0.05,0,0,0.05,57.900000000000006,0)" xlink:href="#bC"/></g><path fill="#fff" d="M101-234c-31-9-42 10-38 44h38v23H63V0H32v-167H5v-23h27c-7-52 17-82 69-68v24" id="cS"/><g id="al"><use transform="matrix(0.05,0,0,0.05,0,0)" xlink:href="#bF"/><use transform="matrix(0.05,0,0,0.05,10,0)" xlink:href="#cS"/></g><path fill="#fff" d="M30 0v-248h187v28H63v79h144v27H63v87h162V0H30" id="cT"/><path fill="#fff" d="M143 4C61 4 22-44 18-125c-5-107 100-154 193-111 17 8 29 25 37 43l-32 9c-13-25-37-40-76-40-61 0-88 39-88 99 0 61 29 100 91 101 35 0 62-11 79-27v-45h-74v-28h105v86C228-13 192 4 143 4" id="cU"/><g id="am"><use transform="matrix(0.05,0,0,0.05,0,0)" xlink:href="#bp"/><use transform="matrix(0.05,0,0,0.05,12.950000000000001,0)" xlink:href="#cT"/><use transform="matrix(0.05,0,0,0.05,24.950000000000003,0)" xlink:href="#cU"/><use transform="matrix(0.05,0,0,0.05,38.95,0)" xlink:href="#bs"/></g><path fill="#fff" d="M206 0h-36l-40-164L89 0H53L-1-190h32L70-26l43-164h34l41 164 42-164h31" id="cV"/><path fill="#fff" d="M106-169C34-169 62-67 57 0H25v-261h32l-1 103c12-21 28-36 61-36 89 0 53 116 60 194h-32v-121c2-32-8-49-39-48" id="cW"/><g id="an"><use transform="matrix(0.05,0,0,0.05,0,0)" xlink:href="#cV"/><use transform="matrix(0.05,0,0,0.05,12.950000000000001,0)" xlink:href="#bA"/><use transform="matrix(0.05,0,0,0.05,16.900000000000002,0)" xlink:href="#br"/><use transform="matrix(0.05,0,0,0.05,21.900000000000002,0)" xlink:href="#cW"/></g><path fill="#fff" d="M24-231v-30h32v30H24zM-9 49c24 4 33-6 33-30v-209h32V24c2 40-23 58-65 49V49" id="cX"/><path fill="#fff" d="M33 0v-38h34V0H33" id="cY"/><path fill="#fff" d="M18-100v-36l175-74v27L42-118l151 64v27" id="cZ"/><path fill="#fff" d="M101-251c68 0 85 55 85 127S166 4 100 4C33 4 14-52 14-124c0-73 17-127 87-127zm-1 229c47 0 54-49 54-102s-4-102-53-102c-51 0-55 48-55 102 0 53 5 102 54 102" id="da"/><path fill="#fff" d="M27 0v-27h64v-190l-56 39v-29l58-41h29v221h61V0H27" id="db"/><g id="ao"><use transform="matrix(0.05,0,0,0.05,0,0)" xlink:href="#bq"/><use transform="matrix(0.05,0,0,0.05,10,0)" xlink:href="#ch"/><use transform="matrix(0.05,0,0,0.05,20,0)" xlink:href="#cX"/><use transform="matrix(0.05,0,0,0.05,23.95,0)" xlink:href="#cY"/><use transform="matrix(0.05,0,0,0.05,28.950000000000003,0)" xlink:href="#bI"/><use transform="matrix(0.05,0,0,0.05,38.95,0)" xlink:href="#cZ"/><use transform="matrix(0.05,0,0,0.05,49.45,0)" xlink:href="#da"/><use transform="matrix(0.05,0,0,0.05,59.45,0)" xlink:href="#cY"/><use transform="matrix(0.05,0,0,0.05,64.45,0)" xlink:href="#db"/></g><path fill="#333" d="M101-251c68 0 85 55 85 127S166 4 100 4C33 4 14-52 14-124c0-73 17-127 87-127zm-1 229c47 0 54-49 54-102s-4-102-53-102c-51 0-55 48-55 102 0 53 5 102 54 102" id="dc"/><use transform="matrix(0.05,0,0,0.05,0,0)" xlink:href="#dc" id="ap"/><g id="aq"><use transform="matrix(0.05,0,0,0.05,0,0)" xlink:href="#bT"/><use transform="matrix(0.05,0,0,0.05,10,0)" xlink:href="#dc"/></g><g id="ar"><use transform="matrix(0.05,0,0,0.05,0,0)" xlink:href="#cC"/><use transform="matrix(0.05,0,0,0.05,10.5,0)" xlink:href="#dc"/></g><path fill="#fff" d="M182-182c0 78-84 86-111 141h115V0H12c-6-101 99-100 120-180 1-22-12-31-33-32-23 0-32 14-35 34l-49-3c5-45 32-70 84-70 51 0 83 22 83 69" id="dd"/><path fill="#fff" d="M139-81c0-46-55-55-73-27H18l9-140h149v37H72l-4 63c44-38 133-4 122 66C201 21 21 35 11-62l49-4c5 18 15 30 39 30 26 0 40-18 40-45" id="de"/><g id="as"><use transform="matrix(0.05,0,0,0.05,0,0)" xlink:href="#dd"/><use transform="matrix(0.05,0,0,0.05,10,0)" xlink:href="#de"/></g><path fill="#fff" d="M24-248c120-7 223 5 221 122C244-46 201 0 124 0H24v-248zM76-40c74 7 117-18 117-86 0-67-45-88-117-82v168" id="df"/><path fill="#fff" d="M115-3C79 11 28 4 28-45v-112H4v-33h27l15-45h31v45h36v33H77v99c-1 23 16 31 38 25v30" id="dg"/><path fill="#fff" d="M137-138c1-29-70-34-71-4 15 46 118 7 119 86 1 83-164 76-172 9l43-7c4 19 20 25 44 25 33 8 57-30 24-41C81-84 22-81 20-136c-2-80 154-74 161-7" id="dh"/><g id="at"><use transform="matrix(0.05,0,0,0.05,0,0)" xlink:href="#df"/><use transform="matrix(0.05,0,0,0.05,12.950000000000001,0)" xlink:href="#bL"/><use transform="matrix(0.05,0,0,0.05,22.950000000000003,0)" xlink:href="#dg"/><use transform="matrix(0.05,0,0,0.05,28.900000000000002,0)" xlink:href="#bL"/><use transform="matrix(0.05,0,0,0.05,38.900000000000006,0)" xlink:href="#dh"/><use transform="matrix(0.05,0,0,0.05,48.900000000000006,0)" xlink:href="#cj"/><use transform="matrix(0.05,0,0,0.05,58.900000000000006,0)" xlink:href="#dg"/><use transform="matrix(0.05,0,0,0.05,64.85000000000001,0)" xlink:href="#dh"/></g><path fill="#fff" d="M240-174c0 40-23 61-54 70L253 0h-59l-57-94H76V0H24v-248c93 4 217-23 216 74zM76-134c48-2 112 12 112-38 0-48-66-32-112-35v73" id="di"/><path fill="#fff" d="M88-194c31-1 46 15 58 34l-1-101h50l1 261h-48c-2-10 0-23-3-31C134-8 116 4 84 4 32 4 16-41 15-95c0-56 19-97 73-99zm17 164c33 0 40-30 41-66 1-37-9-64-41-64s-38 30-39 65c0 43 13 65 39 65" id="dj"/><path fill="#fff" d="M123 10C108 53 80 86 19 72V37c35 8 53-11 59-39L3-190h52l48 148c12-52 28-100 44-148h51" id="dk"/><g id="au"><use transform="matrix(0.05,0,0,0.05,0,0)" xlink:href="#di"/><use transform="matrix(0.05,0,0,0.05,12.950000000000001,0)" xlink:href="#cj"/><use transform="matrix(0.05,0,0,0.05,22.950000000000003,0)" xlink:href="#bL"/><use transform="matrix(0.05,0,0,0.05,32.95,0)" xlink:href="#dj"/><use transform="matrix(0.05,0,0,0.05,43.900000000000006,0)" xlink:href="#dk"/></g><path fill="#fff" d="M121-226c-27-7-43 5-38 36h38v33H83V0H34v-157H6v-33h28c-9-59 32-81 87-68v32" id="dl"/><path fill="#fff" d="M110-194c64 0 96 36 96 99 0 64-35 99-97 99-61 0-95-36-95-99 0-62 34-99 96-99zm-1 164c35 0 45-28 45-65 0-40-10-65-43-65-34 0-45 26-45 65 0 36 10 65 43 65" id="dm"/><path fill="#fff" d="M135-150c-39-12-60 13-60 57V0H25l-1-190h47c2 13-1 29 3 40 6-28 27-53 61-41v41" id="dn"/><g id="av"><use transform="matrix(0.05,0,0,0.05,0,0)" xlink:href="#dl"/><use transform="matrix(0.05,0,0,0.05,5.95,0)" xlink:href="#dm"/><use transform="matrix(0.05,0,0,0.05,16.900000000000002,0)" xlink:href="#dn"/></g><path fill="#fff" d="M24-248c93 1 206-16 204 79-1 75-69 88-152 82V0H24v-248zm52 121c47 0 100 7 100-41 0-47-54-39-100-39v80" id="do"/><path fill="#fff" d="M190-63c-7 42-38 67-86 67-59 0-84-38-90-98-12-110 154-137 174-36l-49 2c-2-19-15-32-35-32-30 0-35 28-38 64-6 74 65 87 74 30" id="dp"/><g id="aw"><use transform="matrix(0.05,0,0,0.05,0,0)" xlink:href="#do"/><use transform="matrix(0.05,0,0,0.05,12,0)" xlink:href="#dn"/><use transform="matrix(0.05,0,0,0.05,19,0)" xlink:href="#dm"/><use transform="matrix(0.05,0,0,0.05,29.950000000000003,0)" xlink:href="#dp"/><use transform="matrix(0.05,0,0,0.05,39.95,0)" xlink:href="#cj"/><use transform="matrix(0.05,0,0,0.05,49.95,0)" xlink:href="#dh"/><use transform="matrix(0.05,0,0,0.05,59.95,0)" xlink:href="#dh"/><use transform="matrix(0.05,0,0,0.05,69.95,0)" xlink:href="#bN"/><use transform="matrix(0.05,0,0,0.05,74.95,0)" xlink:href="#bO"/><use transform="matrix(0.05,0,0,0.05,85.9,0)" xlink:href="#ci"/></g></defs></g></svg>